<svg version="1.1" xmlns="http://www.w3.org/2000/svg" viewBox="0 0 809.2902458446442 748.2647621178594" width="2427.8707375339327" height="2244.794286353578">
  <!-- svg-source:excalidraw -->
  
  <defs>
    <style class="style-fonts">
      @font-face {
        font-family: "Virgil";
        src: url("https://excalidraw.com/Virgil.woff2");
      }
      @font-face {
        font-family: "Cascadia";
        src: url("https://excalidraw.com/Cascadia.woff2");
      }
      @font-face {
        font-family: "Assistant";
        src: url("https://excalidraw.com/Assistant-Regular.woff2");
      }
    </style>
    
  </defs>
  <rect x="0" y="0" width="809.2902458446442" height="748.2647621178594" fill="#ffffff"></rect><g stroke-linecap="round" transform="translate(296.07022090964347 10) rotate(0 38.00606536627038 39)"><path d="M76.01 39 C76.01 41.03, 75.85 43.09, 75.54 45.1 C75.23 47.11, 74.76 49.12, 74.15 51.05 C73.54 52.99, 72.77 54.89, 71.87 56.71 C70.97 58.52, 69.92 60.28, 68.75 61.92 C67.59 63.57, 66.28 65.14, 64.88 66.58 C63.48 68.02, 61.95 69.36, 60.35 70.55 C58.74 71.75, 57.03 72.83, 55.26 73.75 C53.49 74.67, 51.64 75.46, 49.75 76.09 C47.87 76.72, 45.91 77.2, 43.95 77.52 C41.99 77.84, 39.99 78, 38.01 78 C36.02 78, 34.02 77.84, 32.06 77.52 C30.1 77.2, 28.15 76.72, 26.26 76.09 C24.38 75.46, 22.52 74.67, 20.75 73.75 C18.99 72.83, 17.27 71.75, 15.67 70.55 C14.06 69.36, 12.53 68.02, 11.13 66.58 C9.73 65.14, 8.42 63.57, 7.26 61.92 C6.09 60.28, 5.04 58.52, 4.14 56.71 C3.24 54.89, 2.47 52.99, 1.86 51.05 C1.25 49.12, 0.78 47.11, 0.47 45.1 C0.16 43.09, 0 41.03, 0 39 C0 36.97, 0.16 34.91, 0.47 32.9 C0.78 30.89, 1.25 28.88, 1.86 26.95 C2.47 25.01, 3.24 23.11, 4.14 21.29 C5.04 19.48, 6.09 17.72, 7.26 16.08 C8.42 14.43, 9.73 12.86, 11.13 11.42 C12.53 9.98, 14.06 8.64, 15.67 7.45 C17.27 6.25, 18.99 5.17, 20.75 4.25 C22.52 3.33, 24.38 2.54, 26.26 1.91 C28.15 1.28, 30.1 0.8, 32.06 0.48 C34.02 0.16, 36.02 0, 38.01 0 C39.99 0, 41.99 0.16, 43.95 0.48 C45.91 0.8, 47.87 1.28, 49.75 1.91 C51.64 2.54, 53.49 3.33, 55.26 4.25 C57.03 5.17, 58.74 6.25, 60.35 7.45 C61.95 8.64, 63.48 9.98, 64.88 11.42 C66.28 12.86, 67.59 14.43, 68.75 16.08 C69.92 17.72, 70.97 19.48, 71.87 21.29 C72.77 23.11, 73.54 25.01, 74.15 26.95 C74.76 28.88, 75.23 30.89, 75.54 32.9 C75.85 34.91, 75.93 37.98, 76.01 39 C76.09 40.02, 76.09 37.98, 76.01 39" stroke="#1e1e1e" stroke-width="4.5" fill="none" stroke-dasharray="8 12"></path></g><g transform="translate(323.65506472920424 27.32283553372463) rotate(0 10.546875 21.599999999999994)"><text x="10.546875" y="34.762499999999996" font-family="Cascadia, Segoe UI Emoji" font-size="36px" fill="#1e1e1e" text-anchor="middle" style="white-space: pre;" direction="ltr" dominant-baseline="alphabetic">•</text></g><g stroke-linecap="round" transform="translate(234.101247670671 230.16847838021283) rotate(0 38.00606536627038 39)"><path d="M76.01 39 C76.01 41.03, 75.85 43.09, 75.54 45.1 C75.23 47.11, 74.76 49.12, 74.15 51.05 C73.54 52.99, 72.77 54.89, 71.87 56.71 C70.97 58.52, 69.92 60.28, 68.75 61.92 C67.59 63.57, 66.28 65.14, 64.88 66.58 C63.48 68.02, 61.95 69.36, 60.35 70.55 C58.74 71.75, 57.03 72.83, 55.26 73.75 C53.49 74.67, 51.64 75.46, 49.75 76.09 C47.87 76.72, 45.91 77.2, 43.95 77.52 C41.99 77.84, 39.99 78, 38.01 78 C36.02 78, 34.02 77.84, 32.06 77.52 C30.1 77.2, 28.15 76.72, 26.26 76.09 C24.38 75.46, 22.52 74.67, 20.75 73.75 C18.99 72.83, 17.27 71.75, 15.67 70.55 C14.06 69.36, 12.53 68.02, 11.13 66.58 C9.73 65.14, 8.42 63.57, 7.26 61.92 C6.09 60.28, 5.04 58.52, 4.14 56.71 C3.24 54.89, 2.47 52.99, 1.86 51.05 C1.25 49.12, 0.78 47.11, 0.47 45.1 C0.16 43.09, 0 41.03, 0 39 C0 36.97, 0.16 34.91, 0.47 32.9 C0.78 30.89, 1.25 28.88, 1.86 26.95 C2.47 25.01, 3.24 23.11, 4.14 21.29 C5.04 19.48, 6.09 17.72, 7.26 16.08 C8.42 14.43, 9.73 12.86, 11.13 11.42 C12.53 9.98, 14.06 8.64, 15.67 7.45 C17.27 6.25, 18.99 5.17, 20.75 4.25 C22.52 3.33, 24.38 2.54, 26.26 1.91 C28.15 1.28, 30.1 0.8, 32.06 0.48 C34.02 0.16, 36.02 0, 38.01 0 C39.99 0, 41.99 0.16, 43.95 0.48 C45.91 0.8, 47.87 1.28, 49.75 1.91 C51.64 2.54, 53.49 3.33, 55.26 4.25 C57.03 5.17, 58.74 6.25, 60.35 7.45 C61.95 8.64, 63.48 9.98, 64.88 11.42 C66.28 12.86, 67.59 14.43, 68.75 16.08 C69.92 17.72, 70.97 19.48, 71.87 21.29 C72.77 23.11, 73.54 25.01, 74.15 26.95 C74.76 28.88, 75.23 30.89, 75.54 32.9 C75.85 34.91, 75.93 37.98, 76.01 39 C76.09 40.02, 76.09 37.98, 76.01 39" stroke="#1e1e1e" stroke-width="4" fill="none"></path></g><g transform="translate(261.6860914902318 247.49131391393746) rotate(0 10.546875 21.599999999999998)"><text x="10.546875" y="34.762499999999996" font-family="Cascadia, Segoe UI Emoji" font-size="36px" fill="#1e1e1e" text-anchor="middle" style="white-space: pre;" direction="ltr" dominant-baseline="alphabetic">1</text></g><g stroke-linecap="round" transform="translate(290.5829312736514 356.2647621178594) rotate(0 35.93965911627038 191)"><path d="M71.88 191 C71.88 196.26, 71.84 201.53, 71.76 206.77 C71.67 212.01, 71.55 217.25, 71.39 222.44 C71.23 227.62, 71.02 232.79, 70.78 237.89 C70.54 242.98, 70.25 248.04, 69.93 253.02 C69.61 257.99, 69.25 262.91, 68.85 267.72 C68.45 272.54, 68.02 277.28, 67.55 281.91 C67.08 286.53, 66.57 291.07, 66.03 295.47 C65.49 299.87, 64.91 304.17, 64.3 308.31 C63.69 312.46, 63.05 316.49, 62.38 320.36 C61.71 324.23, 61.01 327.96, 60.28 331.52 C59.55 335.08, 58.79 338.5, 58.01 341.73 C57.23 344.96, 56.42 348.02, 55.6 350.9 C54.77 353.77, 53.92 356.48, 53.05 358.98 C52.17 361.48, 51.28 363.8, 50.38 365.91 C49.47 368.02, 48.54 369.94, 47.61 371.65 C46.67 373.36, 45.72 374.86, 44.76 376.16 C43.8 377.45, 42.83 378.53, 41.86 379.4 C40.88 380.26, 39.89 380.91, 38.91 381.35 C37.92 381.78, 36.93 382, 35.94 382 C34.95 382, 33.96 381.78, 32.97 381.35 C31.99 380.91, 31 380.26, 30.02 379.4 C29.05 378.53, 28.08 377.45, 27.12 376.16 C26.16 374.86, 25.21 373.36, 24.27 371.65 C23.33 369.94, 22.41 368.02, 21.5 365.91 C20.6 363.8, 19.7 361.48, 18.83 358.98 C17.96 356.48, 17.11 353.77, 16.28 350.9 C15.45 348.02, 14.65 344.96, 13.87 341.73 C13.08 338.5, 12.33 335.08, 11.6 331.52 C10.87 327.96, 10.17 324.23, 9.5 320.36 C8.83 316.49, 8.19 312.46, 7.58 308.31 C6.97 304.17, 6.39 299.87, 5.85 295.47 C5.31 291.07, 4.8 286.53, 4.33 281.91 C3.86 277.28, 3.42 272.54, 3.03 267.72 C2.63 262.91, 2.27 257.99, 1.95 253.02 C1.63 248.04, 1.34 242.98, 1.1 237.89 C0.86 232.79, 0.65 227.62, 0.49 222.44 C0.33 217.25, 0.2 212.01, 0.12 206.77 C0.04 201.53, 0 196.26, 0 191 C0 185.74, 0.04 180.47, 0.12 175.23 C0.2 169.99, 0.33 164.75, 0.49 159.56 C0.65 154.38, 0.86 149.21, 1.1 144.11 C1.34 139.02, 1.63 133.96, 1.95 128.98 C2.27 124.01, 2.63 119.09, 3.03 114.28 C3.42 109.46, 3.86 104.72, 4.33 100.09 C4.8 95.47, 5.31 90.93, 5.85 86.53 C6.39 82.13, 6.97 77.83, 7.58 73.69 C8.19 69.54, 8.83 65.51, 9.5 61.64 C10.17 57.77, 10.87 54.04, 11.6 50.48 C12.33 46.92, 13.08 43.5, 13.87 40.27 C14.65 37.04, 15.45 33.98, 16.28 31.1 C17.11 28.23, 17.96 25.52, 18.83 23.02 C19.7 20.52, 20.6 18.2, 21.5 16.09 C22.41 13.98, 23.33 12.06, 24.27 10.35 C25.21 8.64, 26.16 7.14, 27.12 5.84 C28.08 4.55, 29.05 3.47, 30.02 2.6 C31 1.74, 31.99 1.09, 32.97 0.65 C33.96 0.22, 34.95 0, 35.94 0 C36.93 0, 37.92 0.22, 38.91 0.65 C39.89 1.09, 40.88 1.74, 41.86 2.6 C42.83 3.47, 43.8 4.55, 44.76 5.84 C45.72 7.14, 46.67 8.64, 47.61 10.35 C48.54 12.06, 49.47 13.98, 50.38 16.09 C51.28 18.2, 52.17 20.52, 53.05 23.02 C53.92 25.52, 54.77 28.23, 55.6 31.1 C56.42 33.98, 57.23 37.04, 58.01 40.27 C58.79 43.5, 59.55 46.92, 60.28 50.48 C61.01 54.04, 61.71 57.77, 62.38 61.64 C63.05 65.51, 63.69 69.54, 64.3 73.69 C64.91 77.83, 65.49 82.13, 66.03 86.53 C66.57 90.93, 67.08 95.47, 67.55 100.09 C68.02 104.72, 68.45 109.46, 68.85 114.28 C69.25 119.09, 69.61 124.01, 69.93 128.98 C70.25 133.96, 70.54 139.02, 70.78 144.11 C71.02 149.21, 71.23 154.38, 71.39 159.56 C71.55 164.75, 71.67 169.99, 71.76 175.23 C71.84 180.47, 71.88 185.74, 71.88 191" stroke="#1e1e1e" stroke-width="4" fill="none"></path></g><g transform="translate(316.06253871527406 417.60736691122884) rotate(0 10.546875 129.59999999999997)"><text x="10.546875" y="34.762499999999996" font-family="Cascadia, Segoe UI Emoji" font-size="36px" fill="#1e1e1e" text-anchor="middle" style="white-space: pre;" direction="ltr" dominant-baseline="alphabetic">8</text><text x="10.546875" y="77.96249999999999" font-family="Cascadia, Segoe UI Emoji" font-size="36px" fill="#1e1e1e" text-anchor="middle" style="white-space: pre;" direction="ltr" dominant-baseline="alphabetic">1</text><text x="10.546875" y="121.1625" font-family="Cascadia, Segoe UI Emoji" font-size="36px" fill="#1e1e1e" text-anchor="middle" style="white-space: pre;" direction="ltr" dominant-baseline="alphabetic">0</text><text x="10.546875" y="164.36249999999998" font-family="Cascadia, Segoe UI Emoji" font-size="36px" fill="#1e1e1e" text-anchor="middle" style="white-space: pre;" direction="ltr" dominant-baseline="alphabetic">8</text><text x="10.546875" y="207.56249999999997" font-family="Cascadia, Segoe UI Emoji" font-size="36px" fill="#1e1e1e" text-anchor="middle" style="white-space: pre;" direction="ltr" dominant-baseline="alphabetic">9</text><text x="10.546875" y="250.76249999999996" font-family="Cascadia, Segoe UI Emoji" font-size="36px" fill="#1e1e1e" text-anchor="middle" style="white-space: pre;" direction="ltr" dominant-baseline="alphabetic">2</text></g><g stroke-linecap="round" transform="translate(598.3062634913604 236.6827750023807) rotate(0 38.00606536627038 39)"><path d="M76.01 39 C76.01 41.03, 75.85 43.09, 75.54 45.1 C75.23 47.11, 74.76 49.12, 74.15 51.05 C73.54 52.99, 72.77 54.89, 71.87 56.71 C70.97 58.52, 69.92 60.28, 68.75 61.92 C67.59 63.57, 66.28 65.14, 64.88 66.58 C63.48 68.02, 61.95 69.36, 60.35 70.55 C58.74 71.75, 57.03 72.83, 55.26 73.75 C53.49 74.67, 51.64 75.46, 49.75 76.09 C47.87 76.72, 45.91 77.2, 43.95 77.52 C41.99 77.84, 39.99 78, 38.01 78 C36.02 78, 34.02 77.84, 32.06 77.52 C30.1 77.2, 28.15 76.72, 26.26 76.09 C24.38 75.46, 22.52 74.67, 20.75 73.75 C18.99 72.83, 17.27 71.75, 15.67 70.55 C14.06 69.36, 12.53 68.02, 11.13 66.58 C9.73 65.14, 8.42 63.57, 7.26 61.92 C6.09 60.28, 5.04 58.52, 4.14 56.71 C3.24 54.89, 2.47 52.99, 1.86 51.05 C1.25 49.12, 0.78 47.11, 0.47 45.1 C0.16 43.09, 0 41.03, 0 39 C0 36.97, 0.16 34.91, 0.47 32.9 C0.78 30.89, 1.25 28.88, 1.86 26.95 C2.47 25.01, 3.24 23.11, 4.14 21.29 C5.04 19.48, 6.09 17.72, 7.26 16.08 C8.42 14.43, 9.73 12.86, 11.13 11.42 C12.53 9.98, 14.06 8.64, 15.67 7.45 C17.27 6.25, 18.99 5.17, 20.75 4.25 C22.52 3.33, 24.38 2.54, 26.26 1.91 C28.15 1.28, 30.1 0.8, 32.06 0.48 C34.02 0.16, 36.02 0, 38.01 0 C39.99 0, 41.99 0.16, 43.95 0.48 C45.91 0.8, 47.87 1.28, 49.75 1.91 C51.64 2.54, 53.49 3.33, 55.26 4.25 C57.03 5.17, 58.74 6.25, 60.35 7.45 C61.95 8.64, 63.48 9.98, 64.88 11.42 C66.28 12.86, 67.59 14.43, 68.75 16.08 C69.92 17.72, 70.97 19.48, 71.87 21.29 C72.77 23.11, 73.54 25.01, 74.15 26.95 C74.76 28.88, 75.23 30.89, 75.54 32.9 C75.85 34.91, 75.93 37.98, 76.01 39 C76.09 40.02, 76.09 37.98, 76.01 39" stroke="#1e1e1e" stroke-width="4" fill="none"></path></g><g transform="translate(625.8911073109211 254.00561053610537) rotate(0 10.546875 21.599999999999998)"><text x="10.546875" y="34.762499999999996" font-family="Cascadia, Segoe UI Emoji" font-size="36px" fill="#1e1e1e" text-anchor="middle" style="white-space: pre;" direction="ltr" dominant-baseline="alphabetic">8</text></g><g stroke-linecap="round" transform="translate(535.1080213038604 374.9816031273807) rotate(0 38.00606536627038 160)"><path d="M76.01 160 C76.01 164.65, 75.96 169.31, 75.87 173.94 C75.77 178.58, 75.63 183.21, 75.43 187.78 C75.24 192.36, 75 196.92, 74.72 201.41 C74.43 205.9, 74.1 210.36, 73.72 214.72 C73.34 219.09, 72.92 223.41, 72.45 227.62 C71.98 231.83, 71.47 235.97, 70.92 240 C70.37 244.03, 69.77 247.96, 69.14 251.77 C68.51 255.58, 67.83 259.29, 67.12 262.85 C66.41 266.41, 65.66 269.85, 64.88 273.14 C64.1 276.42, 63.28 279.58, 62.44 282.57 C61.59 285.55, 60.71 288.4, 59.81 291.06 C58.9 293.73, 57.97 296.24, 57.01 298.56 C56.05 300.89, 55.07 303.04, 54.07 305.01 C53.07 306.97, 52.04 308.76, 51 310.35 C49.97 311.94, 48.91 313.35, 47.84 314.55 C46.78 315.75, 45.69 316.76, 44.61 317.57 C43.52 318.38, 42.42 318.99, 41.32 319.39 C40.22 319.8, 39.11 320, 38.01 320 C36.9 320, 35.79 319.8, 34.69 319.39 C33.59 318.99, 32.49 318.38, 31.41 317.57 C30.32 316.76, 29.24 315.75, 28.17 314.55 C27.1 313.35, 26.04 311.94, 25.01 310.35 C23.97 308.76, 22.94 306.97, 21.94 305.01 C20.94 303.04, 19.96 300.89, 19 298.56 C18.05 296.24, 17.11 293.73, 16.21 291.06 C15.3 288.4, 14.42 285.55, 13.58 282.57 C12.73 279.58, 11.91 276.42, 11.13 273.14 C10.35 269.85, 9.6 266.41, 8.89 262.85 C8.18 259.29, 7.51 255.58, 6.87 251.77 C6.24 247.96, 5.64 244.03, 5.09 240 C4.54 235.97, 4.03 231.83, 3.56 227.62 C3.09 223.41, 2.67 219.09, 2.29 214.72 C1.91 210.36, 1.58 205.9, 1.3 201.41 C1.01 196.92, 0.77 192.36, 0.58 187.78 C0.39 183.21, 0.24 178.58, 0.14 173.94 C0.05 169.31, 0 164.65, 0 160 C0 155.35, 0.05 150.69, 0.14 146.06 C0.24 141.42, 0.39 136.79, 0.58 132.22 C0.77 127.64, 1.01 123.08, 1.3 118.59 C1.58 114.1, 1.91 109.64, 2.29 105.28 C2.67 100.91, 3.09 96.59, 3.56 92.38 C4.03 88.17, 4.54 84.03, 5.09 80 C5.64 75.97, 6.24 72.04, 6.87 68.23 C7.51 64.42, 8.18 60.71, 8.89 57.15 C9.6 53.59, 10.35 50.15, 11.13 46.86 C11.91 43.58, 12.73 40.42, 13.58 37.43 C14.42 34.45, 15.3 31.6, 16.21 28.94 C17.11 26.27, 18.05 23.76, 19 21.44 C19.96 19.11, 20.94 16.96, 21.94 14.99 C22.94 13.03, 23.97 11.24, 25.01 9.65 C26.04 8.06, 27.1 6.65, 28.17 5.45 C29.24 4.25, 30.32 3.24, 31.41 2.43 C32.49 1.62, 33.59 1.01, 34.69 0.61 C35.79 0.2, 36.9 0, 38.01 0 C39.11 0, 40.22 0.2, 41.32 0.61 C42.42 1.01, 43.52 1.62, 44.61 2.43 C45.69 3.24, 46.78 4.25, 47.84 5.45 C48.91 6.65, 49.97 8.06, 51 9.65 C52.04 11.24, 53.07 13.03, 54.07 14.99 C55.07 16.96, 56.05 19.11, 57.01 21.44 C57.97 23.76, 58.9 26.27, 59.81 28.94 C60.71 31.6, 61.59 34.45, 62.44 37.43 C63.28 40.42, 64.1 43.58, 64.88 46.86 C65.66 50.15, 66.41 53.59, 67.12 57.15 C67.83 60.71, 68.51 64.42, 69.14 68.23 C69.77 72.04, 70.37 75.97, 70.92 80 C71.47 84.03, 71.98 88.17, 72.45 92.38 C72.92 96.59, 73.34 100.91, 73.72 105.28 C74.1 109.64, 74.43 114.1, 74.72 118.59 C75 123.08, 75.24 127.64, 75.43 132.22 C75.63 136.79, 75.77 141.42, 75.87 146.06 C75.96 150.69, 75.99 157.68, 76.01 160 C76.04 162.32, 76.04 157.68, 76.01 160" stroke="#1e1e1e" stroke-width="4" fill="none"></path></g><g transform="translate(562.6928651234211 426.8445181375331) rotate(0 10.546875 108)"><text x="10.546875" y="34.762499999999996" font-family="Cascadia, Segoe UI Emoji" font-size="36px" fill="#1e1e1e" text-anchor="middle" style="white-space: pre;" direction="ltr" dominant-baseline="alphabetic">1</text><text x="10.546875" y="77.96249999999999" font-family="Cascadia, Segoe UI Emoji" font-size="36px" fill="#1e1e1e" text-anchor="middle" style="white-space: pre;" direction="ltr" dominant-baseline="alphabetic">0</text><text x="10.546875" y="121.1625" font-family="Cascadia, Segoe UI Emoji" font-size="36px" fill="#1e1e1e" text-anchor="middle" style="white-space: pre;" direction="ltr" dominant-baseline="alphabetic">8</text><text x="10.546875" y="164.36249999999998" font-family="Cascadia, Segoe UI Emoji" font-size="36px" fill="#1e1e1e" text-anchor="middle" style="white-space: pre;" direction="ltr" dominant-baseline="alphabetic">9</text><text x="10.546875" y="207.56249999999997" font-family="Cascadia, Segoe UI Emoji" font-size="36px" fill="#1e1e1e" text-anchor="middle" style="white-space: pre;" direction="ltr" dominant-baseline="alphabetic">2</text></g><g stroke-linecap="round" transform="translate(133.15205217585753 362.07308107540763) rotate(0 38.00606536627038 129.5)"><path d="M76.01 129.5 C76.01 133.73, 75.95 137.98, 75.83 142.19 C75.71 146.4, 75.52 150.61, 75.28 154.76 C75.04 158.91, 74.74 163.04, 74.38 167.09 C74.02 171.14, 73.59 175.15, 73.12 179.06 C72.64 182.97, 72.11 186.81, 71.52 190.55 C70.94 194.28, 70.3 197.93, 69.61 201.45 C68.92 204.96, 68.17 208.38, 67.39 211.65 C66.6 214.92, 65.76 218.08, 64.88 221.07 C64 224.06, 63.08 226.92, 62.12 229.6 C61.16 232.29, 60.15 234.82, 59.12 237.18 C58.09 239.53, 57.02 241.71, 55.92 243.71 C54.83 245.7, 53.7 247.52, 52.55 249.14 C51.4 250.76, 50.23 252.2, 49.04 253.42 C47.85 254.65, 46.64 255.69, 45.42 256.51 C44.2 257.34, 42.97 257.96, 41.73 258.38 C40.5 258.79, 39.25 259, 38.01 259 C36.76 259, 35.52 258.79, 34.28 258.38 C33.05 257.96, 31.81 257.34, 30.59 256.51 C29.37 255.69, 28.16 254.65, 26.97 253.42 C25.79 252.2, 24.61 250.76, 23.46 249.14 C22.31 247.52, 21.19 245.7, 20.09 243.71 C19 241.71, 17.92 239.53, 16.89 237.18 C15.86 234.82, 14.86 232.29, 13.9 229.6 C12.94 226.92, 12.01 224.06, 11.13 221.07 C10.25 218.08, 9.41 214.92, 8.63 211.65 C7.84 208.38, 7.1 204.96, 6.41 201.45 C5.72 197.93, 5.07 194.28, 4.49 190.55 C3.9 186.81, 3.37 182.97, 2.89 179.06 C2.42 175.15, 2 171.14, 1.64 167.09 C1.28 163.04, 0.97 158.91, 0.73 154.76 C0.49 150.61, 0.3 146.4, 0.18 142.19 C0.06 137.98, 0 133.73, 0 129.5 C0 125.27, 0.06 121.02, 0.18 116.81 C0.3 112.6, 0.49 108.39, 0.73 104.24 C0.97 100.09, 1.28 95.96, 1.64 91.91 C2 87.86, 2.42 83.85, 2.89 79.94 C3.37 76.03, 3.9 72.19, 4.49 68.45 C5.07 64.72, 5.72 61.07, 6.41 57.55 C7.1 54.04, 7.84 50.62, 8.63 47.35 C9.41 44.08, 10.25 40.92, 11.13 37.93 C12.01 34.94, 12.94 32.08, 13.9 29.4 C14.86 26.71, 15.86 24.18, 16.89 21.82 C17.92 19.47, 19 17.29, 20.09 15.29 C21.19 13.3, 22.31 11.48, 23.46 9.86 C24.61 8.24, 25.79 6.8, 26.97 5.58 C28.16 4.35, 29.37 3.31, 30.59 2.49 C31.81 1.66, 33.05 1.04, 34.28 0.62 C35.52 0.21, 36.76 0, 38.01 0 C39.25 0, 40.5 0.21, 41.73 0.62 C42.97 1.04, 44.2 1.66, 45.42 2.49 C46.64 3.31, 47.85 4.35, 49.04 5.58 C50.23 6.8, 51.4 8.24, 52.55 9.86 C53.7 11.48, 54.83 13.3, 55.92 15.29 C57.02 17.29, 58.09 19.47, 59.12 21.82 C60.15 24.18, 61.16 26.71, 62.12 29.4 C63.08 32.08, 64 34.94, 64.88 37.93 C65.76 40.92, 66.6 44.08, 67.39 47.35 C68.17 50.62, 68.92 54.04, 69.61 57.55 C70.3 61.07, 70.94 64.72, 71.52 68.45 C72.11 72.19, 72.64 76.03, 73.12 79.94 C73.59 83.85, 74.02 87.86, 74.38 91.91 C74.74 95.96, 75.04 100.09, 75.28 104.24 C75.52 108.39, 75.71 112.6, 75.83 116.81 C75.95 121.02, 75.98 127.38, 76.01 129.5 C76.04 131.62, 76.04 127.38, 76.01 129.5" stroke="#1e1e1e" stroke-width="4" fill="none"></path></g><g transform="translate(160.7368959954183 405.10275291174975) rotate(0 10.546875 86.4)"><text x="10.546875" y="34.762499999999996" font-family="Cascadia, Segoe UI Emoji" font-size="36px" fill="#1e1e1e" text-anchor="middle" style="white-space: pre;" direction="ltr" dominant-baseline="alphabetic">0</text><text x="10.546875" y="77.96249999999999" font-family="Cascadia, Segoe UI Emoji" font-size="36px" fill="#1e1e1e" text-anchor="middle" style="white-space: pre;" direction="ltr" dominant-baseline="alphabetic">8</text><text x="10.546875" y="121.1625" font-family="Cascadia, Segoe UI Emoji" font-size="36px" fill="#1e1e1e" text-anchor="middle" style="white-space: pre;" direction="ltr" dominant-baseline="alphabetic">9</text><text x="10.546875" y="164.36249999999998" font-family="Cascadia, Segoe UI Emoji" font-size="36px" fill="#1e1e1e" text-anchor="middle" style="white-space: pre;" direction="ltr" dominant-baseline="alphabetic">2</text></g><g stroke-linecap="round" transform="translate(10 246.61054533815474) rotate(0 38.00606536627038 129.5)"><path d="M76.01 129.5 C76.01 133.73, 75.95 137.98, 75.83 142.19 C75.71 146.4, 75.52 150.61, 75.28 154.76 C75.04 158.91, 74.74 163.04, 74.38 167.09 C74.02 171.14, 73.59 175.15, 73.12 179.06 C72.64 182.97, 72.11 186.81, 71.52 190.55 C70.94 194.28, 70.3 197.93, 69.61 201.45 C68.92 204.96, 68.17 208.38, 67.39 211.65 C66.6 214.92, 65.76 218.08, 64.88 221.07 C64 224.06, 63.08 226.92, 62.12 229.6 C61.16 232.29, 60.15 234.82, 59.12 237.18 C58.09 239.53, 57.02 241.71, 55.92 243.71 C54.83 245.7, 53.7 247.52, 52.55 249.14 C51.4 250.76, 50.23 252.2, 49.04 253.42 C47.85 254.65, 46.64 255.69, 45.42 256.51 C44.2 257.34, 42.97 257.96, 41.73 258.38 C40.5 258.79, 39.25 259, 38.01 259 C36.76 259, 35.52 258.79, 34.28 258.38 C33.05 257.96, 31.81 257.34, 30.59 256.51 C29.37 255.69, 28.16 254.65, 26.97 253.42 C25.79 252.2, 24.61 250.76, 23.46 249.14 C22.31 247.52, 21.19 245.7, 20.09 243.71 C19 241.71, 17.92 239.53, 16.89 237.18 C15.86 234.82, 14.86 232.29, 13.9 229.6 C12.94 226.92, 12.01 224.06, 11.13 221.07 C10.25 218.08, 9.41 214.92, 8.63 211.65 C7.84 208.38, 7.1 204.96, 6.41 201.45 C5.72 197.93, 5.07 194.28, 4.49 190.55 C3.9 186.81, 3.37 182.97, 2.89 179.06 C2.42 175.15, 2 171.14, 1.64 167.09 C1.28 163.04, 0.97 158.91, 0.73 154.76 C0.49 150.61, 0.3 146.4, 0.18 142.19 C0.06 137.98, 0 133.73, 0 129.5 C0 125.27, 0.06 121.02, 0.18 116.81 C0.3 112.6, 0.49 108.39, 0.73 104.24 C0.97 100.09, 1.28 95.96, 1.64 91.91 C2 87.86, 2.42 83.85, 2.89 79.94 C3.37 76.03, 3.9 72.19, 4.49 68.45 C5.07 64.72, 5.72 61.07, 6.41 57.55 C7.1 54.04, 7.84 50.62, 8.63 47.35 C9.41 44.08, 10.25 40.92, 11.13 37.93 C12.01 34.94, 12.94 32.08, 13.9 29.4 C14.86 26.71, 15.86 24.18, 16.89 21.82 C17.92 19.47, 19 17.29, 20.09 15.29 C21.19 13.3, 22.31 11.48, 23.46 9.86 C24.61 8.24, 25.79 6.8, 26.97 5.58 C28.16 4.35, 29.37 3.31, 30.59 2.49 C31.81 1.66, 33.05 1.04, 34.28 0.62 C35.52 0.21, 36.76 0, 38.01 0 C39.25 0, 40.5 0.21, 41.73 0.62 C42.97 1.04, 44.2 1.66, 45.42 2.49 C46.64 3.31, 47.85 4.35, 49.04 5.58 C50.23 6.8, 51.4 8.24, 52.55 9.86 C53.7 11.48, 54.83 13.3, 55.92 15.29 C57.02 17.29, 58.09 19.47, 59.12 21.82 C60.15 24.18, 61.16 26.71, 62.12 29.4 C63.08 32.08, 64 34.94, 64.88 37.93 C65.76 40.92, 66.6 44.08, 67.39 47.35 C68.17 50.62, 68.92 54.04, 69.61 57.55 C70.3 61.07, 70.94 64.72, 71.52 68.45 C72.11 72.19, 72.64 76.03, 73.12 79.94 C73.59 83.85, 74.02 87.86, 74.38 91.91 C74.74 95.96, 75.04 100.09, 75.28 104.24 C75.52 108.39, 75.71 112.6, 75.83 116.81 C75.95 121.02, 75.98 127.38, 76.01 129.5 C76.04 131.62, 76.04 127.38, 76.01 129.5" stroke="#1e1e1e" stroke-width="4" fill="none"></path></g><g transform="translate(37.584843819560774 289.64021717449685) rotate(0 10.546875 86.39999999999999)"><text x="10.546875" y="34.762499999999996" font-family="Cascadia, Segoe UI Emoji" font-size="36px" fill="#1e1e1e" text-anchor="middle" style="white-space: pre;" direction="ltr" dominant-baseline="alphabetic">0</text><text x="10.546875" y="77.96249999999999" font-family="Cascadia, Segoe UI Emoji" font-size="36px" fill="#1e1e1e" text-anchor="middle" style="white-space: pre;" direction="ltr" dominant-baseline="alphabetic">8</text><text x="10.546875" y="121.1625" font-family="Cascadia, Segoe UI Emoji" font-size="36px" fill="#1e1e1e" text-anchor="middle" style="white-space: pre;" direction="ltr" dominant-baseline="alphabetic">9</text><text x="10.546875" y="164.36249999999998" font-family="Cascadia, Segoe UI Emoji" font-size="36px" fill="#1e1e1e" text-anchor="middle" style="white-space: pre;" direction="ltr" dominant-baseline="alphabetic">2</text></g><g stroke-linecap="round" transform="translate(676.5084119288604 373.8917593773807) rotate(0 31.562691807356714 68.5)"><path d="M63.13 68.5 C63.13 71.48, 63.03 74.49, 62.86 77.44 C62.68 80.4, 62.41 83.35, 62.05 86.23 C61.69 89.11, 61.25 91.96, 60.72 94.71 C60.2 97.47, 59.58 100.17, 58.9 102.75 C58.21 105.33, 57.44 107.84, 56.6 110.2 C55.77 112.56, 54.85 114.83, 53.88 116.94 C52.91 119.04, 51.87 121.03, 50.78 122.84 C49.69 124.66, 48.53 126.33, 47.34 127.82 C46.15 129.31, 44.91 130.65, 43.64 131.79 C42.37 132.93, 41.06 133.89, 39.73 134.67 C38.41 135.44, 37.04 136.02, 35.68 136.41 C34.32 136.8, 32.94 137, 31.56 137 C30.19 137, 28.8 136.8, 27.44 136.41 C26.08 136.02, 24.72 135.44, 23.39 134.67 C22.07 133.89, 20.75 132.93, 19.48 131.79 C18.22 130.65, 16.97 129.31, 15.78 127.82 C14.59 126.33, 13.44 124.66, 12.35 122.84 C11.26 121.03, 10.22 119.04, 9.24 116.94 C8.27 114.83, 7.36 112.56, 6.52 110.2 C5.69 107.84, 4.92 105.33, 4.23 102.75 C3.54 100.17, 2.93 97.47, 2.4 94.71 C1.88 91.96, 1.43 89.11, 1.08 86.23 C0.72 83.35, 0.45 80.4, 0.27 77.44 C0.09 74.49, 0 71.48, 0 68.5 C0 65.52, 0.09 62.51, 0.27 59.56 C0.45 56.6, 0.72 53.65, 1.08 50.77 C1.43 47.89, 1.88 45.04, 2.4 42.29 C2.93 39.53, 3.54 36.83, 4.23 34.25 C4.92 31.67, 5.69 29.16, 6.52 26.8 C7.36 24.44, 8.27 22.17, 9.24 20.06 C10.22 17.96, 11.26 15.97, 12.35 14.16 C13.44 12.34, 14.59 10.67, 15.78 9.18 C16.97 7.69, 18.22 6.35, 19.48 5.21 C20.75 4.07, 22.07 3.11, 23.39 2.33 C24.72 1.56, 26.08 0.98, 27.44 0.59 C28.8 0.2, 30.19 0, 31.56 0 C32.94 0, 34.32 0.2, 35.68 0.59 C37.04 0.98, 38.41 1.56, 39.73 2.33 C41.06 3.11, 42.37 4.07, 43.64 5.21 C44.91 6.35, 46.15 7.69, 47.34 9.18 C48.53 10.67, 49.69 12.34, 50.78 14.16 C51.87 15.97, 52.91 17.96, 53.88 20.06 C54.85 22.17, 55.77 24.44, 56.6 26.8 C57.44 29.16, 58.21 31.67, 58.9 34.25 C59.58 36.83, 60.2 39.53, 60.72 42.29 C61.25 45.04, 61.69 47.89, 62.05 50.77 C62.41 53.65, 62.68 56.6, 62.86 59.56 C63.03 62.51, 63.08 67.01, 63.13 68.5 C63.17 69.99, 63.17 67.01, 63.13 68.5" stroke="#1e1e1e" stroke-width="4" fill="none"></path></g><g transform="translate(697.7060353267334 399.2549448661022) rotate(0 10.546875 43.19999999999999)"><text x="10.546875" y="34.762499999999996" font-family="Cascadia, Segoe UI Emoji" font-size="36px" fill="#1e1e1e" text-anchor="middle" style="white-space: pre;" direction="ltr" dominant-baseline="alphabetic">9</text><text x="10.546875" y="77.96249999999999" font-family="Cascadia, Segoe UI Emoji" font-size="36px" fill="#1e1e1e" text-anchor="middle" style="white-space: pre;" direction="ltr" dominant-baseline="alphabetic">2</text></g><g stroke-linecap="round" transform="translate(723.2781151121053 231.7575279210463) rotate(0 38.00606536627038 70.5)"><path d="M76.01 70.5 C76.01 73.33, 75.92 76.19, 75.74 79 C75.55 81.81, 75.27 84.62, 74.91 87.37 C74.54 90.12, 74.08 92.85, 73.54 95.5 C73 98.15, 72.37 100.75, 71.66 103.26 C70.95 105.77, 70.15 108.22, 69.28 110.55 C68.42 112.88, 67.47 115.13, 66.45 117.25 C65.44 119.37, 64.35 121.39, 63.21 123.27 C62.07 125.15, 60.85 126.91, 59.6 128.52 C58.34 130.13, 57.02 131.61, 55.67 132.92 C54.32 134.24, 52.91 135.41, 51.48 136.42 C50.06 137.42, 48.58 138.27, 47.1 138.95 C45.62 139.63, 44.1 140.14, 42.59 140.49 C41.07 140.83, 39.53 141, 38.01 141 C36.48 141, 34.94 140.83, 33.42 140.49 C31.91 140.14, 30.39 139.63, 28.91 138.95 C27.43 138.27, 25.96 137.42, 24.53 136.42 C23.1 135.41, 21.7 134.24, 20.34 132.92 C18.99 131.61, 17.67 130.13, 16.42 128.52 C15.16 126.91, 13.95 125.15, 12.8 123.27 C11.66 121.39, 10.57 119.37, 9.56 117.25 C8.55 115.13, 7.6 112.88, 6.73 110.55 C5.86 108.22, 5.06 105.77, 4.35 103.26 C3.64 100.75, 3.01 98.15, 2.47 95.5 C1.93 92.85, 1.47 90.12, 1.1 87.37 C0.74 84.62, 0.46 81.81, 0.28 79 C0.09 76.19, 0 73.33, 0 70.5 C0 67.67, 0.09 64.81, 0.28 62 C0.46 59.19, 0.74 56.38, 1.1 53.63 C1.47 50.88, 1.93 48.15, 2.47 45.5 C3.01 42.85, 3.64 40.25, 4.35 37.74 C5.06 35.23, 5.86 32.78, 6.73 30.45 C7.6 28.12, 8.55 25.87, 9.56 23.75 C10.57 21.63, 11.66 19.61, 12.8 17.73 C13.95 15.85, 15.16 14.09, 16.42 12.48 C17.67 10.87, 18.99 9.39, 20.34 8.08 C21.7 6.76, 23.1 5.59, 24.53 4.58 C25.96 3.58, 27.43 2.73, 28.91 2.05 C30.39 1.37, 31.91 0.86, 33.42 0.51 C34.94 0.17, 36.48 0, 38.01 0 C39.53 0, 41.07 0.17, 42.59 0.51 C44.1 0.86, 45.62 1.37, 47.1 2.05 C48.58 2.73, 50.06 3.58, 51.48 4.58 C52.91 5.59, 54.32 6.76, 55.67 8.08 C57.02 9.39, 58.34 10.87, 59.6 12.48 C60.85 14.09, 62.07 15.85, 63.21 17.73 C64.35 19.61, 65.44 21.63, 66.45 23.75 C67.47 25.87, 68.42 28.12, 69.28 30.45 C70.15 32.78, 70.95 35.23, 71.66 37.74 C72.37 40.25, 73 42.85, 73.54 45.5 C74.08 48.15, 74.54 50.88, 74.91 53.63 C75.27 56.38, 75.55 59.19, 75.74 62 C75.92 64.81, 76.01 67.67, 76.01 70.5" stroke="#1e1e1e" stroke-width="4" fill="none"></path></g><g transform="translate(750.8629589316661 259.2064998473947) rotate(0 10.546875 43.199999999999996)"><text x="10.546875" y="34.762499999999996" font-family="Cascadia, Segoe UI Emoji" font-size="36px" fill="#1e1e1e" text-anchor="middle" style="white-space: pre;" direction="ltr" dominant-baseline="alphabetic">9</text><text x="10.546875" y="77.96249999999999" font-family="Cascadia, Segoe UI Emoji" font-size="36px" fill="#1e1e1e" text-anchor="middle" style="white-space: pre;" direction="ltr" dominant-baseline="alphabetic">2</text></g><g stroke-linecap="round" transform="translate(423.86884631553403 230.19379187973067) rotate(0 38.00606536627038 39)"><path d="M76.01 39 C76.01 41.03, 75.85 43.09, 75.54 45.1 C75.23 47.11, 74.76 49.12, 74.15 51.05 C73.54 52.99, 72.77 54.89, 71.87 56.71 C70.97 58.52, 69.92 60.28, 68.75 61.92 C67.59 63.57, 66.28 65.14, 64.88 66.58 C63.48 68.02, 61.95 69.36, 60.35 70.55 C58.74 71.75, 57.03 72.83, 55.26 73.75 C53.49 74.67, 51.64 75.46, 49.75 76.09 C47.87 76.72, 45.91 77.2, 43.95 77.52 C41.99 77.84, 39.99 78, 38.01 78 C36.02 78, 34.02 77.84, 32.06 77.52 C30.1 77.2, 28.15 76.72, 26.26 76.09 C24.38 75.46, 22.52 74.67, 20.75 73.75 C18.99 72.83, 17.27 71.75, 15.67 70.55 C14.06 69.36, 12.53 68.02, 11.13 66.58 C9.73 65.14, 8.42 63.57, 7.26 61.92 C6.09 60.28, 5.04 58.52, 4.14 56.71 C3.24 54.89, 2.47 52.99, 1.86 51.05 C1.25 49.12, 0.78 47.11, 0.47 45.1 C0.16 43.09, 0 41.03, 0 39 C0 36.97, 0.16 34.91, 0.47 32.9 C0.78 30.89, 1.25 28.88, 1.86 26.95 C2.47 25.01, 3.24 23.11, 4.14 21.29 C5.04 19.48, 6.09 17.72, 7.26 16.08 C8.42 14.43, 9.73 12.86, 11.13 11.42 C12.53 9.98, 14.06 8.64, 15.67 7.45 C17.27 6.25, 18.99 5.17, 20.75 4.25 C22.52 3.33, 24.38 2.54, 26.26 1.91 C28.15 1.28, 30.1 0.8, 32.06 0.48 C34.02 0.16, 36.02 0, 38.01 0 C39.99 0, 41.99 0.16, 43.95 0.48 C45.91 0.8, 47.87 1.28, 49.75 1.91 C51.64 2.54, 53.49 3.33, 55.26 4.25 C57.03 5.17, 58.74 6.25, 60.35 7.45 C61.95 8.64, 63.48 9.98, 64.88 11.42 C66.28 12.86, 67.59 14.43, 68.75 16.08 C69.92 17.72, 70.97 19.48, 71.87 21.29 C72.77 23.11, 73.54 25.01, 74.15 26.95 C74.76 28.88, 75.23 30.89, 75.54 32.9 C75.85 34.91, 75.93 37.98, 76.01 39 C76.09 40.02, 76.09 37.98, 76.01 39" stroke="#1e1e1e" stroke-width="4" fill="none"></path></g><g transform="translate(451.4536901350948 247.5166274134553) rotate(0 10.546875 21.599999999999998)"><text x="10.546875" y="34.762499999999996" font-family="Cascadia, Segoe UI Emoji" font-size="36px" fill="#1e1e1e" text-anchor="middle" style="white-space: pre;" direction="ltr" dominant-baseline="alphabetic">2</text></g><g stroke-linecap="round"><g transform="translate(301.83068908444875 69.11573900625115) rotate(0 -126.73657640426609 88.64525549687443)"><path d="M0 0 C-42.25 29.55, -211.23 147.74, -253.47 177.29 M0 0 C-42.25 29.55, -211.23 147.74, -253.47 177.29" stroke="#1e1e1e" stroke-width="4" fill="none"></path></g></g><mask></mask><g stroke-linecap="round"><g transform="translate(326.31048185424333 87.48126371700059) rotate(0 -25.13199855151106 71.00082748562626)"><path d="M0 0 C-8.38 23.67, -41.89 118.33, -50.26 142 M0 0 C-8.38 23.67, -41.89 118.33, -50.26 142" stroke="#1e1e1e" stroke-width="4" fill="none"></path></g></g><mask></mask><g stroke-linecap="round"><g transform="translate(242.0057505369441 295.63722838021283) rotate(0 -35.1953125 33.203125)"><path d="M0 0 C-11.73 11.07, -58.66 55.34, -70.39 66.41 M0 0 C-11.73 11.07, -58.66 55.34, -70.39 66.41" stroke="#1e1e1e" stroke-width="4" fill="none"></path></g></g><mask></mask><g stroke-linecap="round"><g transform="translate(292.6177303266704 302.62921037238243) rotate(0 17.155179442260305 26.334203047477356)"><path d="M0 0 C5.72 8.78, 28.59 43.89, 34.31 52.67 M0 0 C5.72 8.78, 28.59 43.89, 34.31 52.67" stroke="#1e1e1e" stroke-width="4" fill="none"></path></g></g><mask></mask><g stroke-linecap="round"><g transform="translate(610.6768656879885 308.5618207613093) rotate(0 -17.36572265625 31.97998046874997)"><path d="M0 0 C-5.79 10.66, -28.94 53.3, -34.73 63.96 M0 0 C-5.79 10.66, -28.94 53.3, -34.73 63.96" stroke="#1e1e1e" stroke-width="4" fill="none"></path></g></g><mask></mask><g stroke-linecap="round"><g transform="translate(657.1314099004794 308.3933693601714) rotate(0 24.852634779049367 33.07883241455785)"><path d="M0 0 C8.28 11.03, 41.42 55.13, 49.71 66.16 M0 0 C8.28 11.03, 41.42 55.13, 49.71 66.16" stroke="#1e1e1e" stroke-width="4" fill="none"></path></g></g><mask></mask><g stroke-linecap="round"><g transform="translate(353.67387098996005 82.20699255331988) rotate(0 51.72107812534068 73.734894730544)"><path d="M0 0 C17.24 24.58, 86.2 122.89, 103.44 147.47 M0 0 C17.24 24.58, 86.2 122.89, 103.44 147.47" stroke="#1e1e1e" stroke-width="4" fill="none"></path></g></g><mask></mask><g stroke-linecap="round"><g transform="translate(367.3361220633178 67.66516520734513) rotate(0 132.53082101673044 84.08240885716327)"><path d="M0 0 C44.18 28.03, 220.88 140.14, 265.06 168.16 M0 0 C44.18 28.03, 220.88 140.14, 265.06 168.16" stroke="#1e1e1e" stroke-width="4" fill="none"></path></g></g><mask></mask><g stroke-linecap="round"><g transform="translate(372.1474995567569 47.15003589123455) rotate(0 191.34670628708318 92.31776724441946)"><path d="M0 0 C63.78 30.77, 318.91 153.86, 382.69 184.64 M0 0 C63.78 30.77, 318.91 153.86, 382.69 184.64" stroke="#1e1e1e" stroke-width="4" fill="none"></path></g></g><mask></mask></svg>