<svg version="1.1" xmlns="http://www.w3.org/2000/svg" viewBox="0 0 945.0892791700389 771.25" width="2835.267837510117" height="2313.75">
  <!-- svg-source:excalidraw -->
  
  <defs>
    <style class="style-fonts">
      @font-face {
        font-family: "Virgil";
        src: url("https://excalidraw.com/Virgil.woff2");
      }
      @font-face {
        font-family: "Cascadia";
        src: url("https://excalidraw.com/Cascadia.woff2");
      }
      @font-face {
        font-family: "Assistant";
        src: url("https://excalidraw.com/Assistant-Regular.woff2");
      }
    </style>
    
  </defs>
  <rect x="0" y="0" width="945.0892791700389" height="771.25" fill="#ffffff"></rect><g stroke-linecap="round" transform="translate(415.1796875000018 10) rotate(0 38.00606536627038 39)"><path d="M76.01 39 C76.01 41.03, 75.85 43.09, 75.54 45.1 C75.23 47.11, 74.76 49.12, 74.15 51.05 C73.54 52.99, 72.77 54.89, 71.87 56.71 C70.97 58.52, 69.92 60.28, 68.75 61.92 C67.59 63.57, 66.28 65.14, 64.88 66.58 C63.48 68.02, 61.95 69.36, 60.35 70.55 C58.74 71.75, 57.03 72.83, 55.26 73.75 C53.49 74.67, 51.64 75.46, 49.75 76.09 C47.87 76.72, 45.91 77.2, 43.95 77.52 C41.99 77.84, 39.99 78, 38.01 78 C36.02 78, 34.02 77.84, 32.06 77.52 C30.1 77.2, 28.15 76.72, 26.26 76.09 C24.38 75.46, 22.52 74.67, 20.75 73.75 C18.99 72.83, 17.27 71.75, 15.67 70.55 C14.06 69.36, 12.53 68.02, 11.13 66.58 C9.73 65.14, 8.42 63.57, 7.26 61.92 C6.09 60.28, 5.04 58.52, 4.14 56.71 C3.24 54.89, 2.47 52.99, 1.86 51.05 C1.25 49.12, 0.78 47.11, 0.47 45.1 C0.16 43.09, 0 41.03, 0 39 C0 36.97, 0.16 34.91, 0.47 32.9 C0.78 30.89, 1.25 28.88, 1.86 26.95 C2.47 25.01, 3.24 23.11, 4.14 21.29 C5.04 19.48, 6.09 17.72, 7.26 16.08 C8.42 14.43, 9.73 12.86, 11.13 11.42 C12.53 9.98, 14.06 8.64, 15.67 7.45 C17.27 6.25, 18.99 5.17, 20.75 4.25 C22.52 3.33, 24.38 2.54, 26.26 1.91 C28.15 1.28, 30.1 0.8, 32.06 0.48 C34.02 0.16, 36.02 0, 38.01 0 C39.99 0, 41.99 0.16, 43.95 0.48 C45.91 0.8, 47.87 1.28, 49.75 1.91 C51.64 2.54, 53.49 3.33, 55.26 4.25 C57.03 5.17, 58.74 6.25, 60.35 7.45 C61.95 8.64, 63.48 9.98, 64.88 11.42 C66.28 12.86, 67.59 14.43, 68.75 16.08 C69.92 17.72, 70.97 19.48, 71.87 21.29 C72.77 23.11, 73.54 25.01, 74.15 26.95 C74.76 28.88, 75.23 30.89, 75.54 32.9 C75.85 34.91, 75.93 37.98, 76.01 39 C76.09 40.02, 76.09 37.98, 76.01 39" stroke="#1e1e1e" stroke-width="4.5" fill="none" stroke-dasharray="8 12"></path></g><g transform="translate(442.7645313195626 27.32283553372463) rotate(0 10.546875 21.599999999999994)"><text x="10.546875" y="34.762499999999996" font-family="Cascadia, Segoe UI Emoji" font-size="36px" fill="#1e1e1e" text-anchor="middle" style="white-space: pre;" direction="ltr" dominant-baseline="alphabetic">•</text></g><g stroke-linecap="round" transform="translate(110.703125 244.7890625) rotate(0 38.00606536627038 39)"><path d="M76.01 39 C76.01 41.03, 75.85 43.09, 75.54 45.1 C75.23 47.11, 74.76 49.12, 74.15 51.05 C73.54 52.99, 72.77 54.89, 71.87 56.71 C70.97 58.52, 69.92 60.28, 68.75 61.92 C67.59 63.57, 66.28 65.14, 64.88 66.58 C63.48 68.02, 61.95 69.36, 60.35 70.55 C58.74 71.75, 57.03 72.83, 55.26 73.75 C53.49 74.67, 51.64 75.46, 49.75 76.09 C47.87 76.72, 45.91 77.2, 43.95 77.52 C41.99 77.84, 39.99 78, 38.01 78 C36.02 78, 34.02 77.84, 32.06 77.52 C30.1 77.2, 28.15 76.72, 26.26 76.09 C24.38 75.46, 22.52 74.67, 20.75 73.75 C18.99 72.83, 17.27 71.75, 15.67 70.55 C14.06 69.36, 12.53 68.02, 11.13 66.58 C9.73 65.14, 8.42 63.57, 7.26 61.92 C6.09 60.28, 5.04 58.52, 4.14 56.71 C3.24 54.89, 2.47 52.99, 1.86 51.05 C1.25 49.12, 0.78 47.11, 0.47 45.1 C0.16 43.09, 0 41.03, 0 39 C0 36.97, 0.16 34.91, 0.47 32.9 C0.78 30.89, 1.25 28.88, 1.86 26.95 C2.47 25.01, 3.24 23.11, 4.14 21.29 C5.04 19.48, 6.09 17.72, 7.26 16.08 C8.42 14.43, 9.73 12.86, 11.13 11.42 C12.53 9.98, 14.06 8.64, 15.67 7.45 C17.27 6.25, 18.99 5.17, 20.75 4.25 C22.52 3.33, 24.38 2.54, 26.26 1.91 C28.15 1.28, 30.1 0.8, 32.06 0.48 C34.02 0.16, 36.02 0, 38.01 0 C39.99 0, 41.99 0.16, 43.95 0.48 C45.91 0.8, 47.87 1.28, 49.75 1.91 C51.64 2.54, 53.49 3.33, 55.26 4.25 C57.03 5.17, 58.74 6.25, 60.35 7.45 C61.95 8.64, 63.48 9.98, 64.88 11.42 C66.28 12.86, 67.59 14.43, 68.75 16.08 C69.92 17.72, 70.97 19.48, 71.87 21.29 C72.77 23.11, 73.54 25.01, 74.15 26.95 C74.76 28.88, 75.23 30.89, 75.54 32.9 C75.85 34.91, 75.93 37.98, 76.01 39 C76.09 40.02, 76.09 37.98, 76.01 39" stroke="#1e1e1e" stroke-width="4" fill="none"></path></g><g transform="translate(138.28796881956077 262.11189803372463) rotate(0 10.546875 21.599999999999998)"><text x="10.546875" y="34.762499999999996" font-family="Cascadia, Segoe UI Emoji" font-size="36px" fill="#1e1e1e" text-anchor="middle" style="white-space: pre;" direction="ltr" dominant-baseline="alphabetic">1</text></g><g stroke-linecap="round" transform="translate(10 379.25) rotate(0 35.93965911627038 191)"><path d="M71.88 191 C71.88 196.26, 71.84 201.53, 71.76 206.77 C71.67 212.01, 71.55 217.25, 71.39 222.44 C71.23 227.62, 71.02 232.79, 70.78 237.89 C70.54 242.98, 70.25 248.04, 69.93 253.02 C69.61 257.99, 69.25 262.91, 68.85 267.72 C68.45 272.54, 68.02 277.28, 67.55 281.91 C67.08 286.53, 66.57 291.07, 66.03 295.47 C65.49 299.87, 64.91 304.17, 64.3 308.31 C63.69 312.46, 63.05 316.49, 62.38 320.36 C61.71 324.23, 61.01 327.96, 60.28 331.52 C59.55 335.08, 58.79 338.5, 58.01 341.73 C57.23 344.96, 56.42 348.02, 55.6 350.9 C54.77 353.77, 53.92 356.48, 53.05 358.98 C52.17 361.48, 51.28 363.8, 50.38 365.91 C49.47 368.02, 48.54 369.94, 47.61 371.65 C46.67 373.36, 45.72 374.86, 44.76 376.16 C43.8 377.45, 42.83 378.53, 41.86 379.4 C40.88 380.26, 39.89 380.91, 38.91 381.35 C37.92 381.78, 36.93 382, 35.94 382 C34.95 382, 33.96 381.78, 32.97 381.35 C31.99 380.91, 31 380.26, 30.02 379.4 C29.05 378.53, 28.08 377.45, 27.12 376.16 C26.16 374.86, 25.21 373.36, 24.27 371.65 C23.33 369.94, 22.41 368.02, 21.5 365.91 C20.6 363.8, 19.7 361.48, 18.83 358.98 C17.96 356.48, 17.11 353.77, 16.28 350.9 C15.45 348.02, 14.65 344.96, 13.87 341.73 C13.08 338.5, 12.33 335.08, 11.6 331.52 C10.87 327.96, 10.17 324.23, 9.5 320.36 C8.83 316.49, 8.19 312.46, 7.58 308.31 C6.97 304.17, 6.39 299.87, 5.85 295.47 C5.31 291.07, 4.8 286.53, 4.33 281.91 C3.86 277.28, 3.42 272.54, 3.03 267.72 C2.63 262.91, 2.27 257.99, 1.95 253.02 C1.63 248.04, 1.34 242.98, 1.1 237.89 C0.86 232.79, 0.65 227.62, 0.49 222.44 C0.33 217.25, 0.2 212.01, 0.12 206.77 C0.04 201.53, 0 196.26, 0 191 C0 185.74, 0.04 180.47, 0.12 175.23 C0.2 169.99, 0.33 164.75, 0.49 159.56 C0.65 154.38, 0.86 149.21, 1.1 144.11 C1.34 139.02, 1.63 133.96, 1.95 128.98 C2.27 124.01, 2.63 119.09, 3.03 114.28 C3.42 109.46, 3.86 104.72, 4.33 100.09 C4.8 95.47, 5.31 90.93, 5.85 86.53 C6.39 82.13, 6.97 77.83, 7.58 73.69 C8.19 69.54, 8.83 65.51, 9.5 61.64 C10.17 57.77, 10.87 54.04, 11.6 50.48 C12.33 46.92, 13.08 43.5, 13.87 40.27 C14.65 37.04, 15.45 33.98, 16.28 31.1 C17.11 28.23, 17.96 25.52, 18.83 23.02 C19.7 20.52, 20.6 18.2, 21.5 16.09 C22.41 13.98, 23.33 12.06, 24.27 10.35 C25.21 8.64, 26.16 7.14, 27.12 5.84 C28.08 4.55, 29.05 3.47, 30.02 2.6 C31 1.74, 31.99 1.09, 32.97 0.65 C33.96 0.22, 34.95 0, 35.94 0 C36.93 0, 37.92 0.22, 38.91 0.65 C39.89 1.09, 40.88 1.74, 41.86 2.6 C42.83 3.47, 43.8 4.55, 44.76 5.84 C45.72 7.14, 46.67 8.64, 47.61 10.35 C48.54 12.06, 49.47 13.98, 50.38 16.09 C51.28 18.2, 52.17 20.52, 53.05 23.02 C53.92 25.52, 54.77 28.23, 55.6 31.1 C56.42 33.98, 57.23 37.04, 58.01 40.27 C58.79 43.5, 59.55 46.92, 60.28 50.48 C61.01 54.04, 61.71 57.77, 62.38 61.64 C63.05 65.51, 63.69 69.54, 64.3 73.69 C64.91 77.83, 65.49 82.13, 66.03 86.53 C66.57 90.93, 67.08 95.47, 67.55 100.09 C68.02 104.72, 68.45 109.46, 68.85 114.28 C69.25 119.09, 69.61 124.01, 69.93 128.98 C70.25 133.96, 70.54 139.02, 70.78 144.11 C71.02 149.21, 71.23 154.38, 71.39 159.56 C71.55 164.75, 71.67 169.99, 71.76 175.23 C71.84 180.47, 71.88 185.74, 71.88 191" stroke="#1e1e1e" stroke-width="4" fill="none"></path></g><g transform="translate(35.47960744162265 440.59260479336945) rotate(0 10.546875 129.59999999999997)"><text x="10.546875" y="34.762499999999996" font-family="Cascadia, Segoe UI Emoji" font-size="36px" fill="#1e1e1e" text-anchor="middle" style="white-space: pre;" direction="ltr" dominant-baseline="alphabetic">8</text><text x="10.546875" y="77.96249999999999" font-family="Cascadia, Segoe UI Emoji" font-size="36px" fill="#1e1e1e" text-anchor="middle" style="white-space: pre;" direction="ltr" dominant-baseline="alphabetic">1</text><text x="10.546875" y="121.1625" font-family="Cascadia, Segoe UI Emoji" font-size="36px" fill="#1e1e1e" text-anchor="middle" style="white-space: pre;" direction="ltr" dominant-baseline="alphabetic">0</text><text x="10.546875" y="164.36249999999998" font-family="Cascadia, Segoe UI Emoji" font-size="36px" fill="#1e1e1e" text-anchor="middle" style="white-space: pre;" direction="ltr" dominant-baseline="alphabetic">8</text><text x="10.546875" y="207.56249999999997" font-family="Cascadia, Segoe UI Emoji" font-size="36px" fill="#1e1e1e" text-anchor="middle" style="white-space: pre;" direction="ltr" dominant-baseline="alphabetic">9</text><text x="10.546875" y="250.76249999999996" font-family="Cascadia, Segoe UI Emoji" font-size="36px" fill="#1e1e1e" text-anchor="middle" style="white-space: pre;" direction="ltr" dominant-baseline="alphabetic">2</text></g><g stroke-linecap="round" transform="translate(409.1064453125 229.0732421875) rotate(0 38.00606536627038 39)"><path d="M76.01 39 C76.01 41.03, 75.85 43.09, 75.54 45.1 C75.23 47.11, 74.76 49.12, 74.15 51.05 C73.54 52.99, 72.77 54.89, 71.87 56.71 C70.97 58.52, 69.92 60.28, 68.75 61.92 C67.59 63.57, 66.28 65.14, 64.88 66.58 C63.48 68.02, 61.95 69.36, 60.35 70.55 C58.74 71.75, 57.03 72.83, 55.26 73.75 C53.49 74.67, 51.64 75.46, 49.75 76.09 C47.87 76.72, 45.91 77.2, 43.95 77.52 C41.99 77.84, 39.99 78, 38.01 78 C36.02 78, 34.02 77.84, 32.06 77.52 C30.1 77.2, 28.15 76.72, 26.26 76.09 C24.38 75.46, 22.52 74.67, 20.75 73.75 C18.99 72.83, 17.27 71.75, 15.67 70.55 C14.06 69.36, 12.53 68.02, 11.13 66.58 C9.73 65.14, 8.42 63.57, 7.26 61.92 C6.09 60.28, 5.04 58.52, 4.14 56.71 C3.24 54.89, 2.47 52.99, 1.86 51.05 C1.25 49.12, 0.78 47.11, 0.47 45.1 C0.16 43.09, 0 41.03, 0 39 C0 36.97, 0.16 34.91, 0.47 32.9 C0.78 30.89, 1.25 28.88, 1.86 26.95 C2.47 25.01, 3.24 23.11, 4.14 21.29 C5.04 19.48, 6.09 17.72, 7.26 16.08 C8.42 14.43, 9.73 12.86, 11.13 11.42 C12.53 9.98, 14.06 8.64, 15.67 7.45 C17.27 6.25, 18.99 5.17, 20.75 4.25 C22.52 3.33, 24.38 2.54, 26.26 1.91 C28.15 1.28, 30.1 0.8, 32.06 0.48 C34.02 0.16, 36.02 0, 38.01 0 C39.99 0, 41.99 0.16, 43.95 0.48 C45.91 0.8, 47.87 1.28, 49.75 1.91 C51.64 2.54, 53.49 3.33, 55.26 4.25 C57.03 5.17, 58.74 6.25, 60.35 7.45 C61.95 8.64, 63.48 9.98, 64.88 11.42 C66.28 12.86, 67.59 14.43, 68.75 16.08 C69.92 17.72, 70.97 19.48, 71.87 21.29 C72.77 23.11, 73.54 25.01, 74.15 26.95 C74.76 28.88, 75.23 30.89, 75.54 32.9 C75.85 34.91, 75.93 37.98, 76.01 39 C76.09 40.02, 76.09 37.98, 76.01 39" stroke="#1e1e1e" stroke-width="4" fill="none"></path></g><g transform="translate(436.6912891320608 246.39607772122463) rotate(0 10.546875 21.599999999999998)"><text x="10.546875" y="34.762499999999996" font-family="Cascadia, Segoe UI Emoji" font-size="36px" fill="#1e1e1e" text-anchor="middle" style="white-space: pre;" direction="ltr" dominant-baseline="alphabetic">8</text></g><g stroke-linecap="round" transform="translate(345.908203125 367.3720703125) rotate(0 38.00606536627038 166)"><path d="M76.01 166 C76.01 170.82, 75.96 175.66, 75.87 180.47 C75.77 185.27, 75.63 190.08, 75.43 194.83 C75.24 199.57, 75 204.31, 74.72 208.96 C74.43 213.62, 74.1 218.24, 73.72 222.78 C73.34 227.31, 72.92 231.78, 72.45 236.15 C71.98 240.53, 71.47 244.82, 70.92 249 C70.37 253.18, 69.77 257.26, 69.14 261.21 C68.51 265.16, 67.83 269.01, 67.12 272.7 C66.41 276.4, 65.66 279.97, 64.88 283.38 C64.1 286.79, 63.28 290.06, 62.44 293.16 C61.59 296.26, 60.71 299.21, 59.81 301.98 C58.9 304.75, 57.97 307.35, 57.01 309.76 C56.05 312.17, 55.07 314.41, 54.07 316.45 C53.07 318.49, 52.04 320.34, 51 321.99 C49.97 323.64, 48.91 325.1, 47.84 326.34 C46.78 327.59, 45.69 328.64, 44.61 329.48 C43.52 330.32, 42.42 330.95, 41.32 331.37 C40.22 331.79, 39.11 332, 38.01 332 C36.9 332, 35.79 331.79, 34.69 331.37 C33.59 330.95, 32.49 330.32, 31.41 329.48 C30.32 328.64, 29.24 327.59, 28.17 326.34 C27.1 325.1, 26.04 323.64, 25.01 321.99 C23.97 320.34, 22.94 318.49, 21.94 316.45 C20.94 314.41, 19.96 312.17, 19 309.76 C18.05 307.35, 17.11 304.75, 16.21 301.98 C15.3 299.21, 14.42 296.26, 13.58 293.16 C12.73 290.06, 11.91 286.79, 11.13 283.38 C10.35 279.97, 9.6 276.4, 8.89 272.7 C8.18 269.01, 7.51 265.16, 6.87 261.21 C6.24 257.26, 5.64 253.18, 5.09 249 C4.54 244.82, 4.03 240.53, 3.56 236.15 C3.09 231.78, 2.67 227.31, 2.29 222.78 C1.91 218.24, 1.58 213.62, 1.3 208.96 C1.01 204.31, 0.77 199.57, 0.58 194.83 C0.39 190.08, 0.24 185.27, 0.14 180.47 C0.05 175.66, 0 170.82, 0 166 C0 161.18, 0.05 156.34, 0.14 151.53 C0.24 146.73, 0.39 141.92, 0.58 137.17 C0.77 132.43, 1.01 127.69, 1.3 123.04 C1.58 118.38, 1.91 113.76, 2.29 109.22 C2.67 104.69, 3.09 100.22, 3.56 95.85 C4.03 91.47, 4.54 87.18, 5.09 83 C5.64 78.82, 6.24 74.74, 6.87 70.79 C7.51 66.84, 8.18 62.99, 8.89 59.3 C9.6 55.6, 10.35 52.03, 11.13 48.62 C11.91 45.21, 12.73 41.94, 13.58 38.84 C14.42 35.74, 15.3 32.79, 16.21 30.02 C17.11 27.25, 18.05 24.65, 19 22.24 C19.96 19.83, 20.94 17.59, 21.94 15.55 C22.94 13.51, 23.97 11.66, 25.01 10.01 C26.04 8.36, 27.1 6.9, 28.17 5.66 C29.24 4.41, 30.32 3.36, 31.41 2.52 C32.49 1.68, 33.59 1.05, 34.69 0.63 C35.79 0.21, 36.9 0, 38.01 0 C39.11 0, 40.22 0.21, 41.32 0.63 C42.42 1.05, 43.52 1.68, 44.61 2.52 C45.69 3.36, 46.78 4.41, 47.84 5.66 C48.91 6.9, 49.97 8.36, 51 10.01 C52.04 11.66, 53.07 13.51, 54.07 15.55 C55.07 17.59, 56.05 19.83, 57.01 22.24 C57.97 24.65, 58.9 27.25, 59.81 30.02 C60.71 32.79, 61.59 35.74, 62.44 38.84 C63.28 41.94, 64.1 45.21, 64.88 48.62 C65.66 52.03, 66.41 55.6, 67.12 59.3 C67.83 62.99, 68.51 66.84, 69.14 70.79 C69.77 74.74, 70.37 78.82, 70.92 83 C71.47 87.18, 71.98 91.47, 72.45 95.85 C72.92 100.22, 73.34 104.69, 73.72 109.22 C74.1 113.76, 74.43 118.38, 74.72 123.04 C75 127.69, 75.24 132.43, 75.43 137.17 C75.63 141.92, 75.77 146.73, 75.87 151.53 C75.96 156.34, 75.99 163.59, 76.01 166 C76.04 168.41, 76.04 163.59, 76.01 166" stroke="#1e1e1e" stroke-width="4" fill="none"></path></g><g transform="translate(373.4930469445608 425.49234463553313) rotate(0 10.546875 107.99999999999997)"><text x="10.546875" y="34.762499999999996" font-family="Cascadia, Segoe UI Emoji" font-size="36px" fill="#1e1e1e" text-anchor="middle" style="white-space: pre;" direction="ltr" dominant-baseline="alphabetic">1</text><text x="10.546875" y="77.96249999999999" font-family="Cascadia, Segoe UI Emoji" font-size="36px" fill="#1e1e1e" text-anchor="middle" style="white-space: pre;" direction="ltr" dominant-baseline="alphabetic">0</text><text x="10.546875" y="121.1625" font-family="Cascadia, Segoe UI Emoji" font-size="36px" fill="#1e1e1e" text-anchor="middle" style="white-space: pre;" direction="ltr" dominant-baseline="alphabetic">8</text><text x="10.546875" y="164.36249999999998" font-family="Cascadia, Segoe UI Emoji" font-size="36px" fill="#1e1e1e" text-anchor="middle" style="white-space: pre;" direction="ltr" dominant-baseline="alphabetic">9</text><text x="10.546875" y="207.56249999999997" font-family="Cascadia, Segoe UI Emoji" font-size="36px" fill="#1e1e1e" text-anchor="middle" style="white-space: pre;" direction="ltr" dominant-baseline="alphabetic">2</text></g><g stroke-linecap="round" transform="translate(166.484375 369.15234375) rotate(0 38.00606536627038 134.5)"><path d="M76.01 134.5 C76.01 138.89, 75.95 143.31, 75.83 147.68 C75.71 152.06, 75.52 156.43, 75.28 160.74 C75.04 165.05, 74.74 169.34, 74.38 173.54 C74.02 177.75, 73.59 181.91, 73.12 185.97 C72.64 190.03, 72.11 194.03, 71.52 197.9 C70.94 201.78, 70.3 205.57, 69.61 209.22 C68.92 212.88, 68.17 216.43, 67.39 219.83 C66.6 223.22, 65.76 226.5, 64.88 229.61 C64 232.71, 63.08 235.68, 62.12 238.47 C61.16 241.26, 60.15 243.89, 59.12 246.33 C58.09 248.77, 57.02 251.05, 55.92 253.12 C54.83 255.19, 53.7 257.08, 52.55 258.76 C51.4 260.44, 50.23 261.93, 49.04 263.21 C47.85 264.48, 46.64 265.56, 45.42 266.42 C44.2 267.27, 42.97 267.92, 41.73 268.35 C40.5 268.78, 39.25 269, 38.01 269 C36.76 269, 35.52 268.78, 34.28 268.35 C33.05 267.92, 31.81 267.27, 30.59 266.42 C29.37 265.56, 28.16 264.48, 26.97 263.21 C25.79 261.93, 24.61 260.44, 23.46 258.76 C22.31 257.08, 21.19 255.19, 20.09 253.12 C19 251.05, 17.92 248.77, 16.89 246.33 C15.86 243.89, 14.86 241.26, 13.9 238.47 C12.94 235.68, 12.01 232.71, 11.13 229.61 C10.25 226.5, 9.41 223.22, 8.63 219.83 C7.84 216.43, 7.1 212.88, 6.41 209.22 C5.72 205.57, 5.07 201.78, 4.49 197.9 C3.9 194.03, 3.37 190.03, 2.89 185.97 C2.42 181.91, 2 177.75, 1.64 173.54 C1.28 169.34, 0.97 165.05, 0.73 160.74 C0.49 156.43, 0.3 152.06, 0.18 147.68 C0.06 143.31, 0 138.89, 0 134.5 C0 130.11, 0.06 125.69, 0.18 121.32 C0.3 116.94, 0.49 112.57, 0.73 108.26 C0.97 103.95, 1.28 99.66, 1.64 95.46 C2 91.25, 2.42 87.09, 2.89 83.03 C3.37 78.97, 3.9 74.97, 4.49 71.1 C5.07 67.22, 5.72 63.43, 6.41 59.78 C7.1 56.12, 7.84 52.57, 8.63 49.17 C9.41 45.78, 10.25 42.5, 11.13 39.39 C12.01 36.29, 12.94 33.32, 13.9 30.53 C14.86 27.74, 15.86 25.11, 16.89 22.67 C17.92 20.23, 19 17.95, 20.09 15.88 C21.19 13.81, 22.31 11.92, 23.46 10.24 C24.61 8.56, 25.79 7.07, 26.97 5.79 C28.16 4.52, 29.37 3.44, 30.59 2.58 C31.81 1.73, 33.05 1.08, 34.28 0.65 C35.52 0.22, 36.76 0, 38.01 0 C39.25 0, 40.5 0.22, 41.73 0.65 C42.97 1.08, 44.2 1.73, 45.42 2.58 C46.64 3.44, 47.85 4.52, 49.04 5.79 C50.23 7.07, 51.4 8.56, 52.55 10.24 C53.7 11.92, 54.83 13.81, 55.92 15.88 C57.02 17.95, 58.09 20.23, 59.12 22.67 C60.15 25.11, 61.16 27.74, 62.12 30.53 C63.08 33.32, 64 36.29, 64.88 39.39 C65.76 42.5, 66.6 45.78, 67.39 49.17 C68.17 52.57, 68.92 56.12, 69.61 59.78 C70.3 63.43, 70.94 67.22, 71.52 71.1 C72.11 74.97, 72.64 78.97, 73.12 83.03 C73.59 87.09, 74.02 91.25, 74.38 95.46 C74.74 99.66, 75.04 103.95, 75.28 108.26 C75.52 112.57, 75.71 116.94, 75.83 121.32 C75.95 125.69, 75.98 132.3, 76.01 134.5 C76.04 136.7, 76.04 132.3, 76.01 134.5" stroke="#1e1e1e" stroke-width="4" fill="none"></path></g><g transform="translate(194.06921881956077 417.14648168040935) rotate(0 10.546875 86.4)"><text x="10.546875" y="34.762499999999996" font-family="Cascadia, Segoe UI Emoji" font-size="36px" fill="#1e1e1e" text-anchor="middle" style="white-space: pre;" direction="ltr" dominant-baseline="alphabetic">0</text><text x="10.546875" y="77.96249999999999" font-family="Cascadia, Segoe UI Emoji" font-size="36px" fill="#1e1e1e" text-anchor="middle" style="white-space: pre;" direction="ltr" dominant-baseline="alphabetic">8</text><text x="10.546875" y="121.1625" font-family="Cascadia, Segoe UI Emoji" font-size="36px" fill="#1e1e1e" text-anchor="middle" style="white-space: pre;" direction="ltr" dominant-baseline="alphabetic">9</text><text x="10.546875" y="164.36249999999998" font-family="Cascadia, Segoe UI Emoji" font-size="36px" fill="#1e1e1e" text-anchor="middle" style="white-space: pre;" direction="ltr" dominant-baseline="alphabetic">2</text></g><g stroke-linecap="round" transform="translate(620.3603515625 242.888671875) rotate(0 38.00606536627038 134.5)"><path d="M76.01 134.5 C76.01 138.89, 75.95 143.31, 75.83 147.68 C75.71 152.06, 75.52 156.43, 75.28 160.74 C75.04 165.05, 74.74 169.34, 74.38 173.54 C74.02 177.75, 73.59 181.91, 73.12 185.97 C72.64 190.03, 72.11 194.03, 71.52 197.9 C70.94 201.78, 70.3 205.57, 69.61 209.22 C68.92 212.88, 68.17 216.43, 67.39 219.83 C66.6 223.22, 65.76 226.5, 64.88 229.61 C64 232.71, 63.08 235.68, 62.12 238.47 C61.16 241.26, 60.15 243.89, 59.12 246.33 C58.09 248.77, 57.02 251.05, 55.92 253.12 C54.83 255.19, 53.7 257.08, 52.55 258.76 C51.4 260.44, 50.23 261.93, 49.04 263.21 C47.85 264.48, 46.64 265.56, 45.42 266.42 C44.2 267.27, 42.97 267.92, 41.73 268.35 C40.5 268.78, 39.25 269, 38.01 269 C36.76 269, 35.52 268.78, 34.28 268.35 C33.05 267.92, 31.81 267.27, 30.59 266.42 C29.37 265.56, 28.16 264.48, 26.97 263.21 C25.79 261.93, 24.61 260.44, 23.46 258.76 C22.31 257.08, 21.19 255.19, 20.09 253.12 C19 251.05, 17.92 248.77, 16.89 246.33 C15.86 243.89, 14.86 241.26, 13.9 238.47 C12.94 235.68, 12.01 232.71, 11.13 229.61 C10.25 226.5, 9.41 223.22, 8.63 219.83 C7.84 216.43, 7.1 212.88, 6.41 209.22 C5.72 205.57, 5.07 201.78, 4.49 197.9 C3.9 194.03, 3.37 190.03, 2.89 185.97 C2.42 181.91, 2 177.75, 1.64 173.54 C1.28 169.34, 0.97 165.05, 0.73 160.74 C0.49 156.43, 0.3 152.06, 0.18 147.68 C0.06 143.31, 0 138.89, 0 134.5 C0 130.11, 0.06 125.69, 0.18 121.32 C0.3 116.94, 0.49 112.57, 0.73 108.26 C0.97 103.95, 1.28 99.66, 1.64 95.46 C2 91.25, 2.42 87.09, 2.89 83.03 C3.37 78.97, 3.9 74.97, 4.49 71.1 C5.07 67.22, 5.72 63.43, 6.41 59.78 C7.1 56.12, 7.84 52.57, 8.63 49.17 C9.41 45.78, 10.25 42.5, 11.13 39.39 C12.01 36.29, 12.94 33.32, 13.9 30.53 C14.86 27.74, 15.86 25.11, 16.89 22.67 C17.92 20.23, 19 17.95, 20.09 15.88 C21.19 13.81, 22.31 11.92, 23.46 10.24 C24.61 8.56, 25.79 7.07, 26.97 5.79 C28.16 4.52, 29.37 3.44, 30.59 2.58 C31.81 1.73, 33.05 1.08, 34.28 0.65 C35.52 0.22, 36.76 0, 38.01 0 C39.25 0, 40.5 0.22, 41.73 0.65 C42.97 1.08, 44.2 1.73, 45.42 2.58 C46.64 3.44, 47.85 4.52, 49.04 5.79 C50.23 7.07, 51.4 8.56, 52.55 10.24 C53.7 11.92, 54.83 13.81, 55.92 15.88 C57.02 17.95, 58.09 20.23, 59.12 22.67 C60.15 25.11, 61.16 27.74, 62.12 30.53 C63.08 33.32, 64 36.29, 64.88 39.39 C65.76 42.5, 66.6 45.78, 67.39 49.17 C68.17 52.57, 68.92 56.12, 69.61 59.78 C70.3 63.43, 70.94 67.22, 71.52 71.1 C72.11 74.97, 72.64 78.97, 73.12 83.03 C73.59 87.09, 74.02 91.25, 74.38 95.46 C74.74 99.66, 75.04 103.95, 75.28 108.26 C75.52 112.57, 75.71 116.94, 75.83 121.32 C75.95 125.69, 75.98 132.3, 76.01 134.5 C76.04 136.7, 76.04 132.3, 76.01 134.5" stroke="#1e1e1e" stroke-width="4" fill="none"></path></g><g transform="translate(647.9451953820608 290.88280980540935) rotate(0 10.546875 86.39999999999999)"><text x="10.546875" y="34.762499999999996" font-family="Cascadia, Segoe UI Emoji" font-size="36px" fill="#1e1e1e" text-anchor="middle" style="white-space: pre;" direction="ltr" dominant-baseline="alphabetic">0</text><text x="10.546875" y="77.96249999999999" font-family="Cascadia, Segoe UI Emoji" font-size="36px" fill="#1e1e1e" text-anchor="middle" style="white-space: pre;" direction="ltr" dominant-baseline="alphabetic">8</text><text x="10.546875" y="121.1625" font-family="Cascadia, Segoe UI Emoji" font-size="36px" fill="#1e1e1e" text-anchor="middle" style="white-space: pre;" direction="ltr" dominant-baseline="alphabetic">9</text><text x="10.546875" y="164.36249999999998" font-family="Cascadia, Segoe UI Emoji" font-size="36px" fill="#1e1e1e" text-anchor="middle" style="white-space: pre;" direction="ltr" dominant-baseline="alphabetic">2</text></g><g stroke-linecap="round" transform="translate(487.30859375 366.2822265625) rotate(0 38.00606536627038 70.5)"><path d="M76.01 70.5 C76.01 73.33, 75.92 76.19, 75.74 79 C75.55 81.81, 75.27 84.62, 74.91 87.37 C74.54 90.12, 74.08 92.85, 73.54 95.5 C73 98.15, 72.37 100.75, 71.66 103.26 C70.95 105.77, 70.15 108.22, 69.28 110.55 C68.42 112.88, 67.47 115.13, 66.45 117.25 C65.44 119.37, 64.35 121.39, 63.21 123.27 C62.07 125.15, 60.85 126.91, 59.6 128.52 C58.34 130.13, 57.02 131.61, 55.67 132.92 C54.32 134.24, 52.91 135.41, 51.48 136.42 C50.06 137.42, 48.58 138.27, 47.1 138.95 C45.62 139.63, 44.1 140.14, 42.59 140.49 C41.07 140.83, 39.53 141, 38.01 141 C36.48 141, 34.94 140.83, 33.42 140.49 C31.91 140.14, 30.39 139.63, 28.91 138.95 C27.43 138.27, 25.96 137.42, 24.53 136.42 C23.1 135.41, 21.7 134.24, 20.34 132.92 C18.99 131.61, 17.67 130.13, 16.42 128.52 C15.16 126.91, 13.95 125.15, 12.8 123.27 C11.66 121.39, 10.57 119.37, 9.56 117.25 C8.55 115.13, 7.6 112.88, 6.73 110.55 C5.86 108.22, 5.06 105.77, 4.35 103.26 C3.64 100.75, 3.01 98.15, 2.47 95.5 C1.93 92.85, 1.47 90.12, 1.1 87.37 C0.74 84.62, 0.46 81.81, 0.28 79 C0.09 76.19, 0 73.33, 0 70.5 C0 67.67, 0.09 64.81, 0.28 62 C0.46 59.19, 0.74 56.38, 1.1 53.63 C1.47 50.88, 1.93 48.15, 2.47 45.5 C3.01 42.85, 3.64 40.25, 4.35 37.74 C5.06 35.23, 5.86 32.78, 6.73 30.45 C7.6 28.12, 8.55 25.87, 9.56 23.75 C10.57 21.63, 11.66 19.61, 12.8 17.73 C13.95 15.85, 15.16 14.09, 16.42 12.48 C17.67 10.87, 18.99 9.39, 20.34 8.08 C21.7 6.76, 23.1 5.59, 24.53 4.58 C25.96 3.58, 27.43 2.73, 28.91 2.05 C30.39 1.37, 31.91 0.86, 33.42 0.51 C34.94 0.17, 36.48 0, 38.01 0 C39.53 0, 41.07 0.17, 42.59 0.51 C44.1 0.86, 45.62 1.37, 47.1 2.05 C48.58 2.73, 50.06 3.58, 51.48 4.58 C52.91 5.59, 54.32 6.76, 55.67 8.08 C57.02 9.39, 58.34 10.87, 59.6 12.48 C60.85 14.09, 62.07 15.85, 63.21 17.73 C64.35 19.61, 65.44 21.63, 66.45 23.75 C67.47 25.87, 68.42 28.12, 69.28 30.45 C70.15 32.78, 70.95 35.23, 71.66 37.74 C72.37 40.25, 73 42.85, 73.54 45.5 C74.08 48.15, 74.54 50.88, 74.91 53.63 C75.27 56.38, 75.55 59.19, 75.74 62 C75.92 64.81, 76.01 67.67, 76.01 70.5" stroke="#1e1e1e" stroke-width="4" fill="none"></path></g><g transform="translate(514.8934375695608 393.7311984888484) rotate(0 10.546875 43.19999999999999)"><text x="10.546875" y="34.762499999999996" font-family="Cascadia, Segoe UI Emoji" font-size="36px" fill="#1e1e1e" text-anchor="middle" style="white-space: pre;" direction="ltr" dominant-baseline="alphabetic">9</text><text x="10.546875" y="77.96249999999999" font-family="Cascadia, Segoe UI Emoji" font-size="36px" fill="#1e1e1e" text-anchor="middle" style="white-space: pre;" direction="ltr" dominant-baseline="alphabetic">2</text></g><g stroke-linecap="round" transform="translate(739.654296875 246.3427734375) rotate(0 38.00606536627038 70.5)"><path d="M76.01 70.5 C76.01 73.33, 75.92 76.19, 75.74 79 C75.55 81.81, 75.27 84.62, 74.91 87.37 C74.54 90.12, 74.08 92.85, 73.54 95.5 C73 98.15, 72.37 100.75, 71.66 103.26 C70.95 105.77, 70.15 108.22, 69.28 110.55 C68.42 112.88, 67.47 115.13, 66.45 117.25 C65.44 119.37, 64.35 121.39, 63.21 123.27 C62.07 125.15, 60.85 126.91, 59.6 128.52 C58.34 130.13, 57.02 131.61, 55.67 132.92 C54.32 134.24, 52.91 135.41, 51.48 136.42 C50.06 137.42, 48.58 138.27, 47.1 138.95 C45.62 139.63, 44.1 140.14, 42.59 140.49 C41.07 140.83, 39.53 141, 38.01 141 C36.48 141, 34.94 140.83, 33.42 140.49 C31.91 140.14, 30.39 139.63, 28.91 138.95 C27.43 138.27, 25.96 137.42, 24.53 136.42 C23.1 135.41, 21.7 134.24, 20.34 132.92 C18.99 131.61, 17.67 130.13, 16.42 128.52 C15.16 126.91, 13.95 125.15, 12.8 123.27 C11.66 121.39, 10.57 119.37, 9.56 117.25 C8.55 115.13, 7.6 112.88, 6.73 110.55 C5.86 108.22, 5.06 105.77, 4.35 103.26 C3.64 100.75, 3.01 98.15, 2.47 95.5 C1.93 92.85, 1.47 90.12, 1.1 87.37 C0.74 84.62, 0.46 81.81, 0.28 79 C0.09 76.19, 0 73.33, 0 70.5 C0 67.67, 0.09 64.81, 0.28 62 C0.46 59.19, 0.74 56.38, 1.1 53.63 C1.47 50.88, 1.93 48.15, 2.47 45.5 C3.01 42.85, 3.64 40.25, 4.35 37.74 C5.06 35.23, 5.86 32.78, 6.73 30.45 C7.6 28.12, 8.55 25.87, 9.56 23.75 C10.57 21.63, 11.66 19.61, 12.8 17.73 C13.95 15.85, 15.16 14.09, 16.42 12.48 C17.67 10.87, 18.99 9.39, 20.34 8.08 C21.7 6.76, 23.1 5.59, 24.53 4.58 C25.96 3.58, 27.43 2.73, 28.91 2.05 C30.39 1.37, 31.91 0.86, 33.42 0.51 C34.94 0.17, 36.48 0, 38.01 0 C39.53 0, 41.07 0.17, 42.59 0.51 C44.1 0.86, 45.62 1.37, 47.1 2.05 C48.58 2.73, 50.06 3.58, 51.48 4.58 C52.91 5.59, 54.32 6.76, 55.67 8.08 C57.02 9.39, 58.34 10.87, 59.6 12.48 C60.85 14.09, 62.07 15.85, 63.21 17.73 C64.35 19.61, 65.44 21.63, 66.45 23.75 C67.47 25.87, 68.42 28.12, 69.28 30.45 C70.15 32.78, 70.95 35.23, 71.66 37.74 C72.37 40.25, 73 42.85, 73.54 45.5 C74.08 48.15, 74.54 50.88, 74.91 53.63 C75.27 56.38, 75.55 59.19, 75.74 62 C75.92 64.81, 76.01 67.67, 76.01 70.5" stroke="#1e1e1e" stroke-width="4" fill="none"></path></g><g transform="translate(767.2391406945608 273.7917453638484) rotate(0 10.546875 43.19999999999999)"><text x="10.546875" y="34.762499999999996" font-family="Cascadia, Segoe UI Emoji" font-size="36px" fill="#1e1e1e" text-anchor="middle" style="white-space: pre;" direction="ltr" dominant-baseline="alphabetic">9</text><text x="10.546875" y="77.96249999999999" font-family="Cascadia, Segoe UI Emoji" font-size="36px" fill="#1e1e1e" text-anchor="middle" style="white-space: pre;" direction="ltr" dominant-baseline="alphabetic">2</text></g><g stroke-linecap="round" transform="translate(859.0771484375 255.89746093749994) rotate(0 38.00606536627038 39)"><path d="M76.01 39 C76.01 41.03, 75.85 43.09, 75.54 45.1 C75.23 47.11, 74.76 49.12, 74.15 51.05 C73.54 52.99, 72.77 54.89, 71.87 56.71 C70.97 58.52, 69.92 60.28, 68.75 61.92 C67.59 63.57, 66.28 65.14, 64.88 66.58 C63.48 68.02, 61.95 69.36, 60.35 70.55 C58.74 71.75, 57.03 72.83, 55.26 73.75 C53.49 74.67, 51.64 75.46, 49.75 76.09 C47.87 76.72, 45.91 77.2, 43.95 77.52 C41.99 77.84, 39.99 78, 38.01 78 C36.02 78, 34.02 77.84, 32.06 77.52 C30.1 77.2, 28.15 76.72, 26.26 76.09 C24.38 75.46, 22.52 74.67, 20.75 73.75 C18.99 72.83, 17.27 71.75, 15.67 70.55 C14.06 69.36, 12.53 68.02, 11.13 66.58 C9.73 65.14, 8.42 63.57, 7.26 61.92 C6.09 60.28, 5.04 58.52, 4.14 56.71 C3.24 54.89, 2.47 52.99, 1.86 51.05 C1.25 49.12, 0.78 47.11, 0.47 45.1 C0.16 43.09, 0 41.03, 0 39 C0 36.97, 0.16 34.91, 0.47 32.9 C0.78 30.89, 1.25 28.88, 1.86 26.95 C2.47 25.01, 3.24 23.11, 4.14 21.29 C5.04 19.48, 6.09 17.72, 7.26 16.08 C8.42 14.43, 9.73 12.86, 11.13 11.42 C12.53 9.98, 14.06 8.64, 15.67 7.45 C17.27 6.25, 18.99 5.17, 20.75 4.25 C22.52 3.33, 24.38 2.54, 26.26 1.91 C28.15 1.28, 30.1 0.8, 32.06 0.48 C34.02 0.16, 36.02 0, 38.01 0 C39.99 0, 41.99 0.16, 43.95 0.48 C45.91 0.8, 47.87 1.28, 49.75 1.91 C51.64 2.54, 53.49 3.33, 55.26 4.25 C57.03 5.17, 58.74 6.25, 60.35 7.45 C61.95 8.64, 63.48 9.98, 64.88 11.42 C66.28 12.86, 67.59 14.43, 68.75 16.08 C69.92 17.72, 70.97 19.48, 71.87 21.29 C72.77 23.11, 73.54 25.01, 74.15 26.95 C74.76 28.88, 75.23 30.89, 75.54 32.9 C75.85 34.91, 75.93 37.98, 76.01 39 C76.09 40.02, 76.09 37.98, 76.01 39" stroke="#1e1e1e" stroke-width="4" fill="none"></path></g><g transform="translate(886.6619922570608 273.2202964712246) rotate(0 10.546875 21.599999999999998)"><text x="10.546875" y="34.762499999999996" font-family="Cascadia, Segoe UI Emoji" font-size="36px" fill="#1e1e1e" text-anchor="middle" style="white-space: pre;" direction="ltr" dominant-baseline="alphabetic">2</text></g><g stroke-linecap="round"><g transform="translate(415.7560653662713 58.7890625) rotate(0 -124.14453125 93.80859375)"><path d="M0 0 C-41.38 31.27, -206.91 156.35, -248.29 187.62 M0 0 C-41.38 31.27, -206.91 156.35, -248.29 187.62" stroke="#1e1e1e" stroke-width="4" fill="none"></path></g></g><mask></mask><g stroke-linecap="round"><g transform="translate(447.4591903662713 84.4375) rotate(0 0.55322265625 71.89404296875)"><path d="M0 0 C0.18 23.96, 0.92 119.82, 1.11 143.79 M0 0 C0.18 23.96, 0.92 119.82, 1.11 143.79" stroke="#1e1e1e" stroke-width="4" fill="none"></path></g></g><mask></mask><g stroke-linecap="round"><g transform="translate(118.60762786627129 310.2578125) rotate(0 -35.1953125 33.203125)"><path d="M0 0 C-11.73 11.07, -58.66 55.34, -70.39 66.41 M0 0 C-11.73 11.07, -58.66 55.34, -70.39 66.41" stroke="#1e1e1e" stroke-width="4" fill="none"></path></g></g><mask></mask><g stroke-linecap="round"><g transform="translate(168.9591903662713 316.3359375) rotate(0 17.2109375 26.75390625)"><path d="M0 0 C5.74 8.92, 28.68 44.59, 34.42 53.51 M0 0 C5.74 8.92, 28.68 44.59, 34.42 53.51" stroke="#1e1e1e" stroke-width="4" fill="none"></path></g></g><mask></mask><g stroke-linecap="round"><g transform="translate(421.47704750912817 300.9522879464286) rotate(0 -17.36572265625 31.97998046874997)"><path d="M0 0 C-5.79 10.66, -28.94 53.3, -34.73 63.96 M0 0 C-5.79 10.66, -28.94 53.3, -34.73 63.96" stroke="#1e1e1e" stroke-width="4" fill="none"></path></g></g><mask></mask><g stroke-linecap="round"><g transform="translate(467.04833657162817 299.8976004464286) rotate(0 25.2587890625 33.48632812499997)"><path d="M0 0 C8.42 11.16, 42.1 55.81, 50.52 66.97 M0 0 C8.42 11.16, 42.1 55.81, 50.52 66.97" stroke="#1e1e1e" stroke-width="4" fill="none"></path></g></g><mask></mask><g stroke-linecap="round"><g transform="translate(472.79540688412817 83.79896763392856) rotate(0 93.11767578125 79.91699218750003)"><path d="M0 0 C31.04 26.64, 155.2 133.19, 186.24 159.83 M0 0 C31.04 26.64, 155.2 133.19, 186.24 159.83" stroke="#1e1e1e" stroke-width="4" fill="none"></path></g></g><mask></mask><g stroke-linecap="round"><g transform="translate(481.53075844662817 74.25306919642856) rotate(0 145.93994140625 85.96435546875003)"><path d="M0 0 C48.65 28.65, 243.23 143.27, 291.88 171.93 M0 0 C48.65 28.65, 243.23 143.27, 291.88 171.93" stroke="#1e1e1e" stroke-width="4" fill="none"></path></g></g><mask></mask><g stroke-linecap="round"><g transform="translate(489.89501625912817 48.159319196428584) rotate(0 197.64892578125 103.05419921875001)"><path d="M0 0 C65.88 34.35, 329.41 171.76, 395.3 206.11 M0 0 C65.88 34.35, 329.41 171.76, 395.3 206.11" stroke="#1e1e1e" stroke-width="4" fill="none"></path></g></g><mask></mask></svg>