<svg version="1.1" xmlns="http://www.w3.org/2000/svg" viewBox="0 0 640.0040696565061 560.1185755607676" width="1920.0122089695183" height="1680.3557266823027">
  <!-- svg-source:excalidraw -->
  
  <defs>
    <style class="style-fonts">
      @font-face {
        font-family: "Virgil";
        src: url("https://excalidraw.com/Virgil.woff2");
      }
      @font-face {
        font-family: "Cascadia";
        src: url("https://excalidraw.com/Cascadia.woff2");
      }
      @font-face {
        font-family: "Assistant";
        src: url("https://excalidraw.com/Assistant-Regular.woff2");
      }
    </style>
    
  </defs>
  <rect x="0" y="0" width="640.0040696565061" height="560.1185755607676" fill="#ffffff"></rect><g stroke-linecap="round" transform="translate(42.88495927116128 10) rotate(0 22.71431792697672 24.5)"><path d="M45.43 24.5 C45.43 25.92, 45.31 27.36, 45.08 28.75 C44.86 30.15, 44.51 31.55, 44.06 32.88 C43.61 34.21, 43.04 35.52, 42.39 36.75 C41.73 37.98, 40.96 39.16, 40.11 40.25 C39.27 41.33, 38.32 42.36, 37.31 43.27 C36.31 44.18, 35.21 45.01, 34.07 45.72 C32.93 46.43, 31.72 47.04, 30.48 47.52 C29.25 48.01, 27.95 48.38, 26.66 48.63 C25.36 48.87, 24.03 49, 22.71 49 C21.4 49, 20.06 48.87, 18.77 48.63 C17.48 48.38, 16.18 48.01, 14.95 47.52 C13.71 47.04, 12.5 46.43, 11.36 45.72 C10.22 45.01, 9.12 44.18, 8.11 43.27 C7.11 42.36, 6.16 41.33, 5.31 40.25 C4.47 39.16, 3.7 37.98, 3.04 36.75 C2.39 35.52, 1.82 34.21, 1.37 32.88 C0.92 31.55, 0.57 30.15, 0.35 28.75 C0.12 27.36, 0 25.92, 0 24.5 C0 23.08, 0.12 21.64, 0.35 20.25 C0.57 18.85, 0.92 17.45, 1.37 16.12 C1.82 14.79, 2.39 13.48, 3.04 12.25 C3.7 11.02, 4.47 9.84, 5.31 8.75 C6.16 7.67, 7.11 6.64, 8.11 5.73 C9.12 4.82, 10.22 3.99, 11.36 3.28 C12.5 2.57, 13.71 1.96, 14.95 1.48 C16.18 0.99, 17.48 0.62, 18.77 0.37 C20.06 0.13, 21.4 0, 22.71 0 C24.03 0, 25.36 0.13, 26.66 0.37 C27.95 0.62, 29.25 0.99, 30.48 1.48 C31.72 1.96, 32.93 2.57, 34.07 3.28 C35.21 3.99, 36.31 4.82, 37.31 5.73 C38.32 6.64, 39.27 7.67, 40.11 8.75 C40.96 9.84, 41.73 11.02, 42.39 12.25 C43.04 13.48, 43.61 14.79, 44.06 16.12 C44.51 17.45, 44.86 18.85, 45.08 20.25 C45.31 21.64, 45.37 23.79, 45.43 24.5 C45.49 25.21, 45.49 23.79, 45.43 24.5" stroke="#1e1e1e" stroke-width="4" fill="none"></path></g><g transform="translate(59.678453961945706 22.67588386092956) rotate(0 5.859375 12)"><text x="5.859375" y="0" font-family="Cascadia, Segoe UI Emoji" font-size="20px" fill="#1e1e1e" text-anchor="middle" style="white-space: pre;" direction="ltr" dominant-baseline="text-before-edge">c</text></g><g stroke-linecap="round" transform="translate(164.9134052704153 107.03442687614108) rotate(0 22.71431792697672 24.5)"><path d="M45.43 24.5 C45.43 25.92, 45.31 27.36, 45.08 28.75 C44.86 30.15, 44.51 31.55, 44.06 32.88 C43.61 34.21, 43.04 35.52, 42.39 36.75 C41.73 37.98, 40.96 39.16, 40.11 40.25 C39.27 41.33, 38.32 42.36, 37.31 43.27 C36.31 44.18, 35.21 45.01, 34.07 45.72 C32.93 46.43, 31.72 47.04, 30.48 47.52 C29.25 48.01, 27.95 48.38, 26.66 48.63 C25.36 48.87, 24.03 49, 22.71 49 C21.4 49, 20.06 48.87, 18.77 48.63 C17.48 48.38, 16.18 48.01, 14.95 47.52 C13.71 47.04, 12.5 46.43, 11.36 45.72 C10.22 45.01, 9.12 44.18, 8.11 43.27 C7.11 42.36, 6.16 41.33, 5.31 40.25 C4.47 39.16, 3.7 37.98, 3.04 36.75 C2.39 35.52, 1.82 34.21, 1.37 32.88 C0.92 31.55, 0.57 30.15, 0.35 28.75 C0.12 27.36, 0 25.92, 0 24.5 C0 23.08, 0.12 21.64, 0.35 20.25 C0.57 18.85, 0.92 17.45, 1.37 16.12 C1.82 14.79, 2.39 13.48, 3.04 12.25 C3.7 11.02, 4.47 9.84, 5.31 8.75 C6.16 7.67, 7.11 6.64, 8.11 5.73 C9.12 4.82, 10.22 3.99, 11.36 3.28 C12.5 2.57, 13.71 1.96, 14.95 1.48 C16.18 0.99, 17.48 0.62, 18.77 0.37 C20.06 0.13, 21.4 0, 22.71 0 C24.03 0, 25.36 0.13, 26.66 0.37 C27.95 0.62, 29.25 0.99, 30.48 1.48 C31.72 1.96, 32.93 2.57, 34.07 3.28 C35.21 3.99, 36.31 4.82, 37.31 5.73 C38.32 6.64, 39.27 7.67, 40.11 8.75 C40.96 9.84, 41.73 11.02, 42.39 12.25 C43.04 13.48, 43.61 14.79, 44.06 16.12 C44.51 17.45, 44.86 18.85, 45.08 20.25 C45.31 21.64, 45.37 23.79, 45.43 24.5 C45.49 25.21, 45.49 23.79, 45.43 24.5" stroke="#1e1e1e" stroke-width="4" fill="none"></path></g><g transform="translate(181.70689996119972 119.71031073707064) rotate(0 5.859375 12)"><text x="5.859375" y="0" font-family="Cascadia, Segoe UI Emoji" font-size="20px" fill="#1e1e1e" text-anchor="middle" style="white-space: pre;" direction="ltr" dominant-baseline="text-before-edge">h</text></g><g stroke-linecap="round"><g transform="translate(87.0331598465632 46.39487865764619) rotate(0 40.81688772749931 34.96431418540632)"><path d="M0 0 C13.61 11.65, 68.03 58.27, 81.63 69.93 M0 0 C13.61 11.65, 68.03 58.27, 81.63 69.93" stroke="#1e1e1e" stroke-width="4" fill="none"></path></g></g><mask></mask><g stroke-linecap="round" transform="translate(303.0137285999572 231.67365178502564) rotate(0 22.71431792697672 24.5)"><path d="M45.43 24.5 C45.43 25.92, 45.31 27.36, 45.08 28.75 C44.86 30.15, 44.51 31.55, 44.06 32.88 C43.61 34.21, 43.04 35.52, 42.39 36.75 C41.73 37.98, 40.96 39.16, 40.11 40.25 C39.27 41.33, 38.32 42.36, 37.31 43.27 C36.31 44.18, 35.21 45.01, 34.07 45.72 C32.93 46.43, 31.72 47.04, 30.48 47.52 C29.25 48.01, 27.95 48.38, 26.66 48.63 C25.36 48.87, 24.03 49, 22.71 49 C21.4 49, 20.06 48.87, 18.77 48.63 C17.48 48.38, 16.18 48.01, 14.95 47.52 C13.71 47.04, 12.5 46.43, 11.36 45.72 C10.22 45.01, 9.12 44.18, 8.11 43.27 C7.11 42.36, 6.16 41.33, 5.31 40.25 C4.47 39.16, 3.7 37.98, 3.04 36.75 C2.39 35.52, 1.82 34.21, 1.37 32.88 C0.92 31.55, 0.57 30.15, 0.35 28.75 C0.12 27.36, 0 25.92, 0 24.5 C0 23.08, 0.12 21.64, 0.35 20.25 C0.57 18.85, 0.92 17.45, 1.37 16.12 C1.82 14.79, 2.39 13.48, 3.04 12.25 C3.7 11.02, 4.47 9.84, 5.31 8.75 C6.16 7.67, 7.11 6.64, 8.11 5.73 C9.12 4.82, 10.22 3.99, 11.36 3.28 C12.5 2.57, 13.71 1.96, 14.95 1.48 C16.18 0.99, 17.48 0.62, 18.77 0.37 C20.06 0.13, 21.4 0, 22.71 0 C24.03 0, 25.36 0.13, 26.66 0.37 C27.95 0.62, 29.25 0.99, 30.48 1.48 C31.72 1.96, 32.93 2.57, 34.07 3.28 C35.21 3.99, 36.31 4.82, 37.31 5.73 C38.32 6.64, 39.27 7.67, 40.11 8.75 C40.96 9.84, 41.73 11.02, 42.39 12.25 C43.04 13.48, 43.61 14.79, 44.06 16.12 C44.51 17.45, 44.86 18.85, 45.08 20.25 C45.31 21.64, 45.37 23.79, 45.43 24.5 C45.49 25.21, 45.49 23.79, 45.43 24.5" stroke="#1e1e1e" stroke-width="4" fill="none"></path></g><g transform="translate(319.8072232907416 244.34953564595526) rotate(0 5.859375 12)"><text x="5.859375" y="0" font-family="Cascadia, Segoe UI Emoji" font-size="20px" fill="#1e1e1e" text-anchor="middle" style="white-space: pre;" direction="ltr" dominant-baseline="text-before-edge">r</text></g><g stroke-linecap="round"><g transform="translate(203.1328656600649 149.57961780410835) rotate(0 52.111428761560546 43.3715849811133)"><path d="M0 0 C17.37 14.46, 86.85 72.29, 104.22 86.74 M0 0 C17.37 14.46, 86.85 72.29, 104.22 86.74" stroke="#1e1e1e" stroke-width="4" fill="none"></path></g></g><mask></mask><g stroke-linecap="round" transform="translate(229.59540322239218 317.90594017533454) rotate(0 22.71431792697672 24.5)"><path d="M45.43 24.5 C45.43 25.92, 45.31 27.36, 45.08 28.75 C44.86 30.15, 44.51 31.55, 44.06 32.88 C43.61 34.21, 43.04 35.52, 42.39 36.75 C41.73 37.98, 40.96 39.16, 40.11 40.25 C39.27 41.33, 38.32 42.36, 37.31 43.27 C36.31 44.18, 35.21 45.01, 34.07 45.72 C32.93 46.43, 31.72 47.04, 30.48 47.52 C29.25 48.01, 27.95 48.38, 26.66 48.63 C25.36 48.87, 24.03 49, 22.71 49 C21.4 49, 20.06 48.87, 18.77 48.63 C17.48 48.38, 16.18 48.01, 14.95 47.52 C13.71 47.04, 12.5 46.43, 11.36 45.72 C10.22 45.01, 9.12 44.18, 8.11 43.27 C7.11 42.36, 6.16 41.33, 5.31 40.25 C4.47 39.16, 3.7 37.98, 3.04 36.75 C2.39 35.52, 1.82 34.21, 1.37 32.88 C0.92 31.55, 0.57 30.15, 0.35 28.75 C0.12 27.36, 0 25.92, 0 24.5 C0 23.08, 0.12 21.64, 0.35 20.25 C0.57 18.85, 0.92 17.45, 1.37 16.12 C1.82 14.79, 2.39 13.48, 3.04 12.25 C3.7 11.02, 4.47 9.84, 5.31 8.75 C6.16 7.67, 7.11 6.64, 8.11 5.73 C9.12 4.82, 10.22 3.99, 11.36 3.28 C12.5 2.57, 13.71 1.96, 14.95 1.48 C16.18 0.99, 17.48 0.62, 18.77 0.37 C20.06 0.13, 21.4 0, 22.71 0 C24.03 0, 25.36 0.13, 26.66 0.37 C27.95 0.62, 29.25 0.99, 30.48 1.48 C31.72 1.96, 32.93 2.57, 34.07 3.28 C35.21 3.99, 36.31 4.82, 37.31 5.73 C38.32 6.64, 39.27 7.67, 40.11 8.75 C40.96 9.84, 41.73 11.02, 42.39 12.25 C43.04 13.48, 43.61 14.79, 44.06 16.12 C44.51 17.45, 44.86 18.85, 45.08 20.25 C45.31 21.64, 45.37 23.79, 45.43 24.5 C45.49 25.21, 45.49 23.79, 45.43 24.5" stroke="#1e1e1e" stroke-width="4" fill="none"></path></g><g transform="translate(246.3888979131766 330.58182403626415) rotate(0 5.859375 12)"><text x="5.859375" y="0" font-family="Cascadia, Segoe UI Emoji" font-size="20px" fill="#1e1e1e" text-anchor="middle" style="white-space: pre;" direction="ltr" dominant-baseline="text-before-edge">i</text></g><g stroke-linecap="round"><g transform="translate(306.97380277171897 275.2244235299686) rotate(0 -21.837466108067474 23.232842372108223)"><path d="M0 0 C-7.28 7.74, -36.4 38.72, -43.67 46.47 M0 0 C-7.28 7.74, -36.4 38.72, -43.67 46.47" stroke="#1e1e1e" stroke-width="4" fill="none"></path></g></g><mask></mask><g stroke-linecap="round" transform="translate(389.82413990496616 311.87506704244515) rotate(0 22.71431792697649 24.5)"><path d="M45.43 24.5 C45.43 25.92, 45.31 27.36, 45.08 28.75 C44.86 30.15, 44.51 31.55, 44.06 32.88 C43.61 34.21, 43.04 35.52, 42.39 36.75 C41.73 37.98, 40.96 39.16, 40.11 40.25 C39.27 41.33, 38.32 42.36, 37.31 43.27 C36.31 44.18, 35.21 45.01, 34.07 45.72 C32.93 46.43, 31.72 47.04, 30.48 47.52 C29.25 48.01, 27.95 48.38, 26.66 48.63 C25.36 48.87, 24.03 49, 22.71 49 C21.4 49, 20.06 48.87, 18.77 48.63 C17.48 48.38, 16.18 48.01, 14.95 47.52 C13.71 47.04, 12.5 46.43, 11.36 45.72 C10.22 45.01, 9.12 44.18, 8.11 43.27 C7.11 42.36, 6.16 41.33, 5.31 40.25 C4.47 39.16, 3.7 37.98, 3.04 36.75 C2.39 35.52, 1.82 34.21, 1.37 32.88 C0.92 31.55, 0.57 30.15, 0.35 28.75 C0.12 27.36, 0 25.92, 0 24.5 C0 23.08, 0.12 21.64, 0.35 20.25 C0.57 18.85, 0.92 17.45, 1.37 16.12 C1.82 14.79, 2.39 13.48, 3.04 12.25 C3.7 11.02, 4.47 9.84, 5.31 8.75 C6.16 7.67, 7.11 6.64, 8.11 5.73 C9.12 4.82, 10.22 3.99, 11.36 3.28 C12.5 2.57, 13.71 1.96, 14.95 1.48 C16.18 0.99, 17.48 0.62, 18.77 0.37 C20.06 0.13, 21.4 0, 22.71 0 C24.03 0, 25.36 0.13, 26.66 0.37 C27.95 0.62, 29.25 0.99, 30.48 1.48 C31.72 1.96, 32.93 2.57, 34.07 3.28 C35.21 3.99, 36.31 4.82, 37.31 5.73 C38.32 6.64, 39.27 7.67, 40.11 8.75 C40.96 9.84, 41.73 11.02, 42.39 12.25 C43.04 13.48, 43.61 14.79, 44.06 16.12 C44.51 17.45, 44.86 18.85, 45.08 20.25 C45.31 21.64, 45.37 23.79, 45.43 24.5 C45.49 25.21, 45.49 23.79, 45.43 24.5" stroke="#1e1e1e" stroke-width="4" fill="none"></path></g><g transform="translate(406.6176345957506 324.55095090337477) rotate(0 5.859375 12)"><text x="5.859375" y="0" font-family="Cascadia, Segoe UI Emoji" font-size="20px" fill="#1e1e1e" text-anchor="middle" style="white-space: pre;" direction="ltr" dominant-baseline="text-before-edge">s</text></g><g stroke-linecap="round"><g transform="translate(345.0958819855482 273.19968546938344) rotate(0 25.526343111630922 22.96553423460915)"><path d="M0 0 C8.51 7.66, 42.54 38.28, 51.05 45.93 M0 0 C8.51 7.66, 42.54 38.28, 51.05 45.93" stroke="#1e1e1e" stroke-width="4" fill="none"></path></g></g><mask></mask><g stroke-linecap="round" transform="translate(472.33476203189775 395.3744107450834) rotate(0 22.71431792697649 24.5)"><path d="M45.43 24.5 C45.43 25.92, 45.31 27.36, 45.08 28.75 C44.86 30.15, 44.51 31.55, 44.06 32.88 C43.61 34.21, 43.04 35.52, 42.39 36.75 C41.73 37.98, 40.96 39.16, 40.11 40.25 C39.27 41.33, 38.32 42.36, 37.31 43.27 C36.31 44.18, 35.21 45.01, 34.07 45.72 C32.93 46.43, 31.72 47.04, 30.48 47.52 C29.25 48.01, 27.95 48.38, 26.66 48.63 C25.36 48.87, 24.03 49, 22.71 49 C21.4 49, 20.06 48.87, 18.77 48.63 C17.48 48.38, 16.18 48.01, 14.95 47.52 C13.71 47.04, 12.5 46.43, 11.36 45.72 C10.22 45.01, 9.12 44.18, 8.11 43.27 C7.11 42.36, 6.16 41.33, 5.31 40.25 C4.47 39.16, 3.7 37.98, 3.04 36.75 C2.39 35.52, 1.82 34.21, 1.37 32.88 C0.92 31.55, 0.57 30.15, 0.35 28.75 C0.12 27.36, 0 25.92, 0 24.5 C0 23.08, 0.12 21.64, 0.35 20.25 C0.57 18.85, 0.92 17.45, 1.37 16.12 C1.82 14.79, 2.39 13.48, 3.04 12.25 C3.7 11.02, 4.47 9.84, 5.31 8.75 C6.16 7.67, 7.11 6.64, 8.11 5.73 C9.12 4.82, 10.22 3.99, 11.36 3.28 C12.5 2.57, 13.71 1.96, 14.95 1.48 C16.18 0.99, 17.48 0.62, 18.77 0.37 C20.06 0.13, 21.4 0, 22.71 0 C24.03 0, 25.36 0.13, 26.66 0.37 C27.95 0.62, 29.25 0.99, 30.48 1.48 C31.72 1.96, 32.93 2.57, 34.07 3.28 C35.21 3.99, 36.31 4.82, 37.31 5.73 C38.32 6.64, 39.27 7.67, 40.11 8.75 C40.96 9.84, 41.73 11.02, 42.39 12.25 C43.04 13.48, 43.61 14.79, 44.06 16.12 C44.51 17.45, 44.86 18.85, 45.08 20.25 C45.31 21.64, 45.37 23.79, 45.43 24.5 C45.49 25.21, 45.49 23.79, 45.43 24.5" stroke="#1e1e1e" stroke-width="4" fill="none"></path></g><g transform="translate(489.1282567226822 408.05029460601304) rotate(0 5.859375 12)"><text x="5.859375" y="0" font-family="Cascadia, Segoe UI Emoji" font-size="20px" fill="#1e1e1e" text-anchor="middle" style="white-space: pre;" direction="ltr" dominant-baseline="text-before-edge">t</text></g><g stroke-linecap="round"><g transform="translate(429.8942405098983 356.19530131546856) rotate(0 23.8688406746669 22.90426071285185)"><path d="M0 0 C7.96 7.63, 39.78 38.17, 47.74 45.81 M0 0 C7.96 7.63, 39.78 38.17, 47.74 45.81" stroke="#1e1e1e" stroke-width="4" fill="none"></path></g></g><mask></mask><g stroke-linecap="round" transform="translate(318.5245036182055 397.5620804109358) rotate(0 22.71431792697672 24.5)"><path d="M45.43 24.5 C45.43 25.92, 45.31 27.36, 45.08 28.75 C44.86 30.15, 44.51 31.55, 44.06 32.88 C43.61 34.21, 43.04 35.52, 42.39 36.75 C41.73 37.98, 40.96 39.16, 40.11 40.25 C39.27 41.33, 38.32 42.36, 37.31 43.27 C36.31 44.18, 35.21 45.01, 34.07 45.72 C32.93 46.43, 31.72 47.04, 30.48 47.52 C29.25 48.01, 27.95 48.38, 26.66 48.63 C25.36 48.87, 24.03 49, 22.71 49 C21.4 49, 20.06 48.87, 18.77 48.63 C17.48 48.38, 16.18 48.01, 14.95 47.52 C13.71 47.04, 12.5 46.43, 11.36 45.72 C10.22 45.01, 9.12 44.18, 8.11 43.27 C7.11 42.36, 6.16 41.33, 5.31 40.25 C4.47 39.16, 3.7 37.98, 3.04 36.75 C2.39 35.52, 1.82 34.21, 1.37 32.88 C0.92 31.55, 0.57 30.15, 0.35 28.75 C0.12 27.36, 0 25.92, 0 24.5 C0 23.08, 0.12 21.64, 0.35 20.25 C0.57 18.85, 0.92 17.45, 1.37 16.12 C1.82 14.79, 2.39 13.48, 3.04 12.25 C3.7 11.02, 4.47 9.84, 5.31 8.75 C6.16 7.67, 7.11 6.64, 8.11 5.73 C9.12 4.82, 10.22 3.99, 11.36 3.28 C12.5 2.57, 13.71 1.96, 14.95 1.48 C16.18 0.99, 17.48 0.62, 18.77 0.37 C20.06 0.13, 21.4 0, 22.71 0 C24.03 0, 25.36 0.13, 26.66 0.37 C27.95 0.62, 29.25 0.99, 30.48 1.48 C31.72 1.96, 32.93 2.57, 34.07 3.28 C35.21 3.99, 36.31 4.82, 37.31 5.73 C38.32 6.64, 39.27 7.67, 40.11 8.75 C40.96 9.84, 41.73 11.02, 42.39 12.25 C43.04 13.48, 43.61 14.79, 44.06 16.12 C44.51 17.45, 44.86 18.85, 45.08 20.25 C45.31 21.64, 45.37 23.79, 45.43 24.5 C45.49 25.21, 45.49 23.79, 45.43 24.5" stroke="#1e1e1e" stroke-width="4" fill="none"></path></g><g transform="translate(335.3179983089899 410.2379642718654) rotate(0 5.859375 12)"><text x="5.859375" y="0" font-family="Cascadia, Segoe UI Emoji" font-size="20px" fill="#1e1e1e" text-anchor="middle" style="white-space: pre;" direction="ltr" dominant-baseline="text-before-edge">o</text></g><g stroke-linecap="round"><g transform="translate(267.9768005164983 360.51082970287064) rotate(0 29.05770849156488 20.116862946812375)"><path d="M0 0 C9.69 6.71, 48.43 33.53, 58.12 40.23 M0 0 C9.69 6.71, 48.43 33.53, 58.12 40.23" stroke="#1e1e1e" stroke-width="4" fill="none"></path></g></g><mask></mask><g stroke-linecap="round"><g transform="translate(357.9118661366897 439.0194701522968) rotate(0 32.20571401496045 32.0736901562384)"><path d="M0 0 C10.74 10.69, 53.68 53.46, 64.41 64.15 M0 0 C10.74 10.69, 53.68 53.46, 64.41 64.15" stroke="#1e1e1e" stroke-width="4" fill="none"></path></g></g><mask></mask><g stroke-linecap="round" transform="translate(408.52444532192703 501.11857556076757) rotate(0 22.71431792697649 24.5)"><path d="M45.43 24.5 C45.43 25.92, 45.31 27.36, 45.08 28.75 C44.86 30.15, 44.51 31.55, 44.06 32.88 C43.61 34.21, 43.04 35.52, 42.39 36.75 C41.73 37.98, 40.96 39.16, 40.11 40.25 C39.27 41.33, 38.32 42.36, 37.31 43.27 C36.31 44.18, 35.21 45.01, 34.07 45.72 C32.93 46.43, 31.72 47.04, 30.48 47.52 C29.25 48.01, 27.95 48.38, 26.66 48.63 C25.36 48.87, 24.03 49, 22.71 49 C21.4 49, 20.06 48.87, 18.77 48.63 C17.48 48.38, 16.18 48.01, 14.95 47.52 C13.71 47.04, 12.5 46.43, 11.36 45.72 C10.22 45.01, 9.12 44.18, 8.11 43.27 C7.11 42.36, 6.16 41.33, 5.31 40.25 C4.47 39.16, 3.7 37.98, 3.04 36.75 C2.39 35.52, 1.82 34.21, 1.37 32.88 C0.92 31.55, 0.57 30.15, 0.35 28.75 C0.12 27.36, 0 25.92, 0 24.5 C0 23.08, 0.12 21.64, 0.35 20.25 C0.57 18.85, 0.92 17.45, 1.37 16.12 C1.82 14.79, 2.39 13.48, 3.04 12.25 C3.7 11.02, 4.47 9.84, 5.31 8.75 C6.16 7.67, 7.11 6.64, 8.11 5.73 C9.12 4.82, 10.22 3.99, 11.36 3.28 C12.5 2.57, 13.71 1.96, 14.95 1.48 C16.18 0.99, 17.48 0.62, 18.77 0.37 C20.06 0.13, 21.4 0, 22.71 0 C24.03 0, 25.36 0.13, 26.66 0.37 C27.95 0.62, 29.25 0.99, 30.48 1.48 C31.72 1.96, 32.93 2.57, 34.07 3.28 C35.21 3.99, 36.31 4.82, 37.31 5.73 C38.32 6.64, 39.27 7.67, 40.11 8.75 C40.96 9.84, 41.73 11.02, 42.39 12.25 C43.04 13.48, 43.61 14.79, 44.06 16.12 C44.51 17.45, 44.86 18.85, 45.08 20.25 C45.31 21.64, 45.37 23.79, 45.43 24.5 C45.49 25.21, 45.49 23.79, 45.43 24.5" stroke="#1e1e1e" stroke-width="4" fill="none"></path></g><g transform="translate(425.31794001271146 513.7944594216972) rotate(0 5.859375 12)"><text x="5.859375" y="0" font-family="Cascadia, Segoe UI Emoji" font-size="20px" fill="#1e1e1e" text-anchor="middle" style="white-space: pre;" direction="ltr" dominant-baseline="text-before-edge">p</text></g><g stroke-linecap="round" transform="translate(29.534057334286445 228.71646807290188) rotate(0 22.71431792697672 24.5)"><path d="M45.43 24.5 C45.43 25.92, 45.31 27.36, 45.08 28.75 C44.86 30.15, 44.51 31.55, 44.06 32.88 C43.61 34.21, 43.04 35.52, 42.39 36.75 C41.73 37.98, 40.96 39.16, 40.11 40.25 C39.27 41.33, 38.32 42.36, 37.31 43.27 C36.31 44.18, 35.21 45.01, 34.07 45.72 C32.93 46.43, 31.72 47.04, 30.48 47.52 C29.25 48.01, 27.95 48.38, 26.66 48.63 C25.36 48.87, 24.03 49, 22.71 49 C21.4 49, 20.06 48.87, 18.77 48.63 C17.48 48.38, 16.18 48.01, 14.95 47.52 C13.71 47.04, 12.5 46.43, 11.36 45.72 C10.22 45.01, 9.12 44.18, 8.11 43.27 C7.11 42.36, 6.16 41.33, 5.31 40.25 C4.47 39.16, 3.7 37.98, 3.04 36.75 C2.39 35.52, 1.82 34.21, 1.37 32.88 C0.92 31.55, 0.57 30.15, 0.35 28.75 C0.12 27.36, 0 25.92, 0 24.5 C0 23.08, 0.12 21.64, 0.35 20.25 C0.57 18.85, 0.92 17.45, 1.37 16.12 C1.82 14.79, 2.39 13.48, 3.04 12.25 C3.7 11.02, 4.47 9.84, 5.31 8.75 C6.16 7.67, 7.11 6.64, 8.11 5.73 C9.12 4.82, 10.22 3.99, 11.36 3.28 C12.5 2.57, 13.71 1.96, 14.95 1.48 C16.18 0.99, 17.48 0.62, 18.77 0.37 C20.06 0.13, 21.4 0, 22.71 0 C24.03 0, 25.36 0.13, 26.66 0.37 C27.95 0.62, 29.25 0.99, 30.48 1.48 C31.72 1.96, 32.93 2.57, 34.07 3.28 C35.21 3.99, 36.31 4.82, 37.31 5.73 C38.32 6.64, 39.27 7.67, 40.11 8.75 C40.96 9.84, 41.73 11.02, 42.39 12.25 C43.04 13.48, 43.61 14.79, 44.06 16.12 C44.51 17.45, 44.86 18.85, 45.08 20.25 C45.31 21.64, 45.37 23.79, 45.43 24.5 C45.49 25.21, 45.49 23.79, 45.43 24.5" stroke="#1e1e1e" stroke-width="4" fill="none"></path></g><g transform="translate(46.32755202507087 241.3923519338315) rotate(0 5.859375 12)"><text x="5.859375" y="0" font-family="Cascadia, Segoe UI Emoji" font-size="20px" fill="#1e1e1e" text-anchor="middle" style="white-space: pre;" direction="ltr" dominant-baseline="text-before-edge">e</text></g><g stroke-linecap="round"><g transform="translate(169.61703555114264 146.3681766341034) rotate(0 -51.505707028613415 42.70877048059543)"><path d="M0 0 C-17.17 14.24, -85.84 71.18, -103.01 85.42 M0 0 C-17.17 14.24, -85.84 71.18, -103.01 85.42" stroke="#1e1e1e" stroke-width="4" fill="none"></path></g></g><mask></mask><g stroke-linecap="round"><g transform="translate(72.79767659898152 265.94390632274155) rotate(0 30.86926807854684 26.426671660310262)"><path d="M0 0 C10.29 8.81, 51.45 44.04, 61.74 52.85 M0 0 C10.29 8.81, 51.45 44.04, 61.74 52.85" stroke="#1e1e1e" stroke-width="4" fill="none"></path></g></g><mask></mask><g stroke-linecap="round" transform="translate(129.93035713473455 314.6596950058614) rotate(0 22.71431792697672 24.5)"><path d="M45.43 24.5 C45.43 25.92, 45.31 27.36, 45.08 28.75 C44.86 30.15, 44.51 31.55, 44.06 32.88 C43.61 34.21, 43.04 35.52, 42.39 36.75 C41.73 37.98, 40.96 39.16, 40.11 40.25 C39.27 41.33, 38.32 42.36, 37.31 43.27 C36.31 44.18, 35.21 45.01, 34.07 45.72 C32.93 46.43, 31.72 47.04, 30.48 47.52 C29.25 48.01, 27.95 48.38, 26.66 48.63 C25.36 48.87, 24.03 49, 22.71 49 C21.4 49, 20.06 48.87, 18.77 48.63 C17.48 48.38, 16.18 48.01, 14.95 47.52 C13.71 47.04, 12.5 46.43, 11.36 45.72 C10.22 45.01, 9.12 44.18, 8.11 43.27 C7.11 42.36, 6.16 41.33, 5.31 40.25 C4.47 39.16, 3.7 37.98, 3.04 36.75 C2.39 35.52, 1.82 34.21, 1.37 32.88 C0.92 31.55, 0.57 30.15, 0.35 28.75 C0.12 27.36, 0 25.92, 0 24.5 C0 23.08, 0.12 21.64, 0.35 20.25 C0.57 18.85, 0.92 17.45, 1.37 16.12 C1.82 14.79, 2.39 13.48, 3.04 12.25 C3.7 11.02, 4.47 9.84, 5.31 8.75 C6.16 7.67, 7.11 6.64, 8.11 5.73 C9.12 4.82, 10.22 3.99, 11.36 3.28 C12.5 2.57, 13.71 1.96, 14.95 1.48 C16.18 0.99, 17.48 0.62, 18.77 0.37 C20.06 0.13, 21.4 0, 22.71 0 C24.03 0, 25.36 0.13, 26.66 0.37 C27.95 0.62, 29.25 0.99, 30.48 1.48 C31.72 1.96, 32.93 2.57, 34.07 3.28 C35.21 3.99, 36.31 4.82, 37.31 5.73 C38.32 6.64, 39.27 7.67, 40.11 8.75 C40.96 9.84, 41.73 11.02, 42.39 12.25 C43.04 13.48, 43.61 14.79, 44.06 16.12 C44.51 17.45, 44.86 18.85, 45.08 20.25 C45.31 21.64, 45.37 23.79, 45.43 24.5 C45.49 25.21, 45.49 23.79, 45.43 24.5" stroke="#1e1e1e" stroke-width="4" fill="none"></path></g><g transform="translate(146.72385182551898 327.335578866791) rotate(0 5.859375 12)"><text x="5.859375" y="0" font-family="Cascadia, Segoe UI Emoji" font-size="20px" fill="#1e1e1e" text-anchor="middle" style="white-space: pre;" direction="ltr" dominant-baseline="text-before-edge">g</text></g><g stroke-linecap="round" transform="translate(241.8264010154935 497.18064447584754) rotate(0 22.71431792697672 24.5)"><path d="M45.43 24.5 C45.43 25.92, 45.31 27.36, 45.08 28.75 C44.86 30.15, 44.51 31.55, 44.06 32.88 C43.61 34.21, 43.04 35.52, 42.39 36.75 C41.73 37.98, 40.96 39.16, 40.11 40.25 C39.27 41.33, 38.32 42.36, 37.31 43.27 C36.31 44.18, 35.21 45.01, 34.07 45.72 C32.93 46.43, 31.72 47.04, 30.48 47.52 C29.25 48.01, 27.95 48.38, 26.66 48.63 C25.36 48.87, 24.03 49, 22.71 49 C21.4 49, 20.06 48.87, 18.77 48.63 C17.48 48.38, 16.18 48.01, 14.95 47.52 C13.71 47.04, 12.5 46.43, 11.36 45.72 C10.22 45.01, 9.12 44.18, 8.11 43.27 C7.11 42.36, 6.16 41.33, 5.31 40.25 C4.47 39.16, 3.7 37.98, 3.04 36.75 C2.39 35.52, 1.82 34.21, 1.37 32.88 C0.92 31.55, 0.57 30.15, 0.35 28.75 C0.12 27.36, 0 25.92, 0 24.5 C0 23.08, 0.12 21.64, 0.35 20.25 C0.57 18.85, 0.92 17.45, 1.37 16.12 C1.82 14.79, 2.39 13.48, 3.04 12.25 C3.7 11.02, 4.47 9.84, 5.31 8.75 C6.16 7.67, 7.11 6.64, 8.11 5.73 C9.12 4.82, 10.22 3.99, 11.36 3.28 C12.5 2.57, 13.71 1.96, 14.95 1.48 C16.18 0.99, 17.48 0.62, 18.77 0.37 C20.06 0.13, 21.4 0, 22.71 0 C24.03 0, 25.36 0.13, 26.66 0.37 C27.95 0.62, 29.25 0.99, 30.48 1.48 C31.72 1.96, 32.93 2.57, 34.07 3.28 C35.21 3.99, 36.31 4.82, 37.31 5.73 C38.32 6.64, 39.27 7.67, 40.11 8.75 C40.96 9.84, 41.73 11.02, 42.39 12.25 C43.04 13.48, 43.61 14.79, 44.06 16.12 C44.51 17.45, 44.86 18.85, 45.08 20.25 C45.31 21.64, 45.37 23.79, 45.43 24.5 C45.49 25.21, 45.49 23.79, 45.43 24.5" stroke="#1e1e1e" stroke-width="4" fill="none"></path></g><g transform="translate(258.61989570627793 509.85652833677716) rotate(0 5.859375 12)"><text x="5.859375" y="0" font-family="Cascadia, Segoe UI Emoji" font-size="20px" fill="#1e1e1e" text-anchor="middle" style="white-space: pre;" direction="ltr" dominant-baseline="text-before-edge">m</text></g><g stroke-linecap="round"><g transform="translate(322.3871081287966 439.52570906870415) rotate(0 -22.670516858335986 29.2000127813115)"><path d="M0 0 C-7.56 9.73, -37.78 48.67, -45.34 58.4 M0 0 C-7.56 9.73, -37.78 48.67, -45.34 58.4" stroke="#1e1e1e" stroke-width="4" fill="none"></path></g></g><mask></mask><g stroke-linecap="round"><g transform="translate(513.5169642041251 435.4010286148233) rotate(0 27.938647823144493 30.472685171759736)"><path d="M0 0 C9.31 10.16, 46.56 50.79, 55.88 60.95 M0 0 C9.31 10.16, 46.56 50.79, 55.88 60.95" stroke="#1e1e1e" stroke-width="4" fill="none"></path></g></g><mask></mask><g stroke-linecap="round" transform="translate(555.5599107079674 494.81865292346504) rotate(0 22.71431792697649 24.5)"><path d="M45.43 24.5 C45.43 25.92, 45.31 27.36, 45.08 28.75 C44.86 30.15, 44.51 31.55, 44.06 32.88 C43.61 34.21, 43.04 35.52, 42.39 36.75 C41.73 37.98, 40.96 39.16, 40.11 40.25 C39.27 41.33, 38.32 42.36, 37.31 43.27 C36.31 44.18, 35.21 45.01, 34.07 45.72 C32.93 46.43, 31.72 47.04, 30.48 47.52 C29.25 48.01, 27.95 48.38, 26.66 48.63 C25.36 48.87, 24.03 49, 22.71 49 C21.4 49, 20.06 48.87, 18.77 48.63 C17.48 48.38, 16.18 48.01, 14.95 47.52 C13.71 47.04, 12.5 46.43, 11.36 45.72 C10.22 45.01, 9.12 44.18, 8.11 43.27 C7.11 42.36, 6.16 41.33, 5.31 40.25 C4.47 39.16, 3.7 37.98, 3.04 36.75 C2.39 35.52, 1.82 34.21, 1.37 32.88 C0.92 31.55, 0.57 30.15, 0.35 28.75 C0.12 27.36, 0 25.92, 0 24.5 C0 23.08, 0.12 21.64, 0.35 20.25 C0.57 18.85, 0.92 17.45, 1.37 16.12 C1.82 14.79, 2.39 13.48, 3.04 12.25 C3.7 11.02, 4.47 9.84, 5.31 8.75 C6.16 7.67, 7.11 6.64, 8.11 5.73 C9.12 4.82, 10.22 3.99, 11.36 3.28 C12.5 2.57, 13.71 1.96, 14.95 1.48 C16.18 0.99, 17.48 0.62, 18.77 0.37 C20.06 0.13, 21.4 0, 22.71 0 C24.03 0, 25.36 0.13, 26.66 0.37 C27.95 0.62, 29.25 0.99, 30.48 1.48 C31.72 1.96, 32.93 2.57, 34.07 3.28 C35.21 3.99, 36.31 4.82, 37.31 5.73 C38.32 6.64, 39.27 7.67, 40.11 8.75 C40.96 9.84, 41.73 11.02, 42.39 12.25 C43.04 13.48, 43.61 14.79, 44.06 16.12 C44.51 17.45, 44.86 18.85, 45.08 20.25 C45.31 21.64, 45.37 23.79, 45.43 24.5 C45.49 25.21, 45.49 23.79, 45.43 24.5" stroke="#1e1e1e" stroke-width="4" fill="none"></path></g><g transform="translate(572.3534053987519 507.49453678439465) rotate(0 5.859375 12)"><text x="5.859375" y="0" font-family="Cascadia, Segoe UI Emoji" font-size="20px" fill="#1e1e1e" text-anchor="middle" style="white-space: pre;" direction="ltr" dominant-baseline="text-before-edge">z</text></g><g transform="translate(24.709999084472656 20.866927408927438) rotate(0 5.859375 12)"><text x="0" y="0" font-family="Cascadia, Segoe UI Emoji" font-size="20px" fill="#1e1e1e" text-anchor="start" style="white-space: pre;" direction="ltr" dominant-baseline="text-before-edge">1</text></g><g transform="translate(526.9999999999995 509.3669274089274) rotate(0 11.71875 12)"><text x="0" y="0" font-family="Cascadia, Segoe UI Emoji" font-size="20px" fill="#1e1e1e" text-anchor="start" style="white-space: pre;" direction="ltr" dominant-baseline="text-before-edge">12</text></g><g transform="translate(441.99999999999955 408.3669274089274) rotate(0 11.71875 12)"><text x="0" y="0" font-family="Cascadia, Segoe UI Emoji" font-size="20px" fill="#1e1e1e" text-anchor="start" style="white-space: pre;" direction="ltr" dominant-baseline="text-before-edge">11</text></g><g transform="translate(359 323.3669274089274) rotate(0 11.71875 12)"><text x="0" y="0" font-family="Cascadia, Segoe UI Emoji" font-size="20px" fill="#1e1e1e" text-anchor="start" style="white-space: pre;" direction="ltr" dominant-baseline="text-before-edge">10</text></g><g transform="translate(387 515.3669274089274) rotate(0 5.859374999999773 12)"><text x="0" y="0" font-family="Cascadia, Segoe UI Emoji" font-size="20px" fill="#1e1e1e" text-anchor="start" style="white-space: pre;" direction="ltr" dominant-baseline="text-before-edge">9</text></g><g transform="translate(218 513.3669274089274) rotate(0 5.859375 12)"><text x="0" y="0" font-family="Cascadia, Segoe UI Emoji" font-size="20px" fill="#1e1e1e" text-anchor="start" style="white-space: pre;" direction="ltr" dominant-baseline="text-before-edge">8</text></g><g transform="translate(296 411.3669274089274) rotate(0 5.859375 12)"><text x="0" y="0" font-family="Cascadia, Segoe UI Emoji" font-size="20px" fill="#1e1e1e" text-anchor="start" style="white-space: pre;" direction="ltr" dominant-baseline="text-before-edge">7</text></g><g transform="translate(211 329.3669274089274) rotate(0 5.859375 12)"><text x="0" y="0" font-family="Cascadia, Segoe UI Emoji" font-size="20px" fill="#1e1e1e" text-anchor="start" style="white-space: pre;" direction="ltr" dominant-baseline="text-before-edge">6</text></g><g transform="translate(281 244.36692740892738) rotate(0 5.859375 12)"><text x="0" y="0" font-family="Cascadia, Segoe UI Emoji" font-size="20px" fill="#1e1e1e" text-anchor="start" style="white-space: pre;" direction="ltr" dominant-baseline="text-before-edge">5</text></g><g transform="translate(112 328.3669274089274) rotate(0 5.859375 12)"><text x="0" y="0" font-family="Cascadia, Segoe UI Emoji" font-size="20px" fill="#1e1e1e" text-anchor="start" style="white-space: pre;" direction="ltr" dominant-baseline="text-before-edge">4</text></g><g transform="translate(10 243.36692740892738) rotate(0 5.859375 12)"><text x="0" y="0" font-family="Cascadia, Segoe UI Emoji" font-size="20px" fill="#1e1e1e" text-anchor="start" style="white-space: pre;" direction="ltr" dominant-baseline="text-before-edge">3</text></g><g transform="translate(148 120.36692740892744) rotate(0 5.859375 12)"><text x="0" y="0" font-family="Cascadia, Segoe UI Emoji" font-size="20px" fill="#1e1e1e" text-anchor="start" style="white-space: pre;" direction="ltr" dominant-baseline="text-before-edge">2</text></g><g transform="translate(94.57532057203298 21.85524306624876) rotate(0 5.859375 12)"><text x="0" y="0" font-family="Cascadia, Segoe UI Emoji" font-size="20px" fill="#1971c2" text-anchor="start" style="white-space: pre;" direction="ltr" dominant-baseline="text-before-edge">1</text></g><g transform="translate(216.5753205720339 119.85524306624887) rotate(0 5.859375 12)"><text x="0" y="0" font-family="Cascadia, Segoe UI Emoji" font-size="20px" fill="#1971c2" text-anchor="start" style="white-space: pre;" direction="ltr" dominant-baseline="text-before-edge">2</text></g><g transform="translate(82.42594465650564 239.35524306624882) rotate(0 5.859375 12)"><text x="0" y="0" font-family="Cascadia, Segoe UI Emoji" font-size="20px" fill="#1971c2" text-anchor="start" style="white-space: pre;" direction="ltr" dominant-baseline="text-before-edge">3</text></g><g transform="translate(361.42594465650654 242.35524306624882) rotate(0 5.859375 12)"><text x="0" y="0" font-family="Cascadia, Segoe UI Emoji" font-size="20px" fill="#1971c2" text-anchor="start" style="white-space: pre;" direction="ltr" dominant-baseline="text-before-edge">4</text></g><g transform="translate(181.42594465650564 327.3552430662488) rotate(0 5.859375 12)"><text x="0" y="0" font-family="Cascadia, Segoe UI Emoji" font-size="20px" fill="#1971c2" text-anchor="start" style="white-space: pre;" direction="ltr" dominant-baseline="text-before-edge">5</text></g><g transform="translate(281.42594465650564 329.3552430662488) rotate(0 5.859375 12)"><text x="0" y="0" font-family="Cascadia, Segoe UI Emoji" font-size="20px" fill="#1971c2" text-anchor="start" style="white-space: pre;" direction="ltr" dominant-baseline="text-before-edge">6</text></g><g transform="translate(445.4259446565061 324.3552430662488) rotate(0 5.859375 12)"><text x="0" y="0" font-family="Cascadia, Segoe UI Emoji" font-size="20px" fill="#1971c2" text-anchor="start" style="white-space: pre;" direction="ltr" dominant-baseline="text-before-edge">7</text></g><g transform="translate(372.4259446565061 409.3552430662488) rotate(0 5.859375 12)"><text x="0" y="0" font-family="Cascadia, Segoe UI Emoji" font-size="20px" fill="#1971c2" text-anchor="start" style="white-space: pre;" direction="ltr" dominant-baseline="text-before-edge">8</text></g><g transform="translate(525.4259446565061 409.3552430662488) rotate(0 5.859375 12)"><text x="0" y="0" font-family="Cascadia, Segoe UI Emoji" font-size="20px" fill="#1971c2" text-anchor="start" style="white-space: pre;" direction="ltr" dominant-baseline="text-before-edge">9</text></g><g transform="translate(293.4259446565061 510.3552430662488) rotate(0 11.71875 12)"><text x="0" y="0" font-family="Cascadia, Segoe UI Emoji" font-size="20px" fill="#1971c2" text-anchor="start" style="white-space: pre;" direction="ltr" dominant-baseline="text-before-edge">10</text></g><g transform="translate(460.5665696565061 514.3552430662488) rotate(0 11.71875 12)"><text x="0" y="0" font-family="Cascadia, Segoe UI Emoji" font-size="20px" fill="#1971c2" text-anchor="start" style="white-space: pre;" direction="ltr" dominant-baseline="text-before-edge">11</text></g><g transform="translate(606.5665696565061 507.3552430662488) rotate(0 11.71875 12)"><text x="0" y="0" font-family="Cascadia, Segoe UI Emoji" font-size="20px" fill="#1971c2" text-anchor="start" style="white-space: pre;" direction="ltr" dominant-baseline="text-before-edge">12</text></g></svg>